M48
; DRILL file {KiCad 7.0.9} date Wed 29 Nov 2023 22:58:01 CET
; FORMAT={-:-/ absolute / metric / decimal}
; #@! TF.CreationDate,2023-11-29T22:58:01+01:00
; #@! TF.GenerationSoftware,Kicad,Pcbnew,7.0.9
; #@! TF.FileFunction,Plated,1,2,PTH
FMAT,2
METRIC
; #@! TA.AperFunction,Plated,PTH,ViaDrill
T1C0.400
; #@! TA.AperFunction,Plated,PTH,ComponentDrill
T2C0.500
; #@! TA.AperFunction,Plated,PTH,ComponentDrill
T3C0.800
; #@! TA.AperFunction,Plated,PTH,ComponentDrill
T4C1.016
; #@! TA.AperFunction,Plated,PTH,ComponentDrill
T5C1.100
; #@! TA.AperFunction,Plated,PTH,ComponentDrill
T6C1.190
; #@! TA.AperFunction,Plated,PTH,ComponentDrill
T7C3.200
%
G90
G05
T1
X129.9Y-94.75
X134.5Y-85.45
T2
X85.05Y-60.6
X85.05Y-112.1
X85.753Y-58.903
X85.753Y-62.297
X85.753Y-110.403
X85.753Y-113.797
X87.45Y-58.2
X87.45Y-63.0
X87.45Y-109.7
X87.45Y-114.5
X89.147Y-58.903
X89.147Y-62.297
X89.147Y-110.403
X89.147Y-113.797
X89.85Y-60.6
X89.85Y-112.1
X158.5Y-60.6
X158.5Y-111.825
X159.203Y-58.903
X159.203Y-62.297
X159.203Y-110.128
X159.203Y-113.522
X160.9Y-58.2
X160.9Y-63.0
X160.9Y-109.425
X160.9Y-114.225
X162.597Y-58.903
X162.597Y-62.297
X162.597Y-110.128
X162.597Y-113.522
X163.3Y-60.6
X163.3Y-111.825
T3
X104.25Y-107.55
X109.25Y-107.55
X114.85Y-94.45
X119.85Y-94.45
X130.1Y-92.1
X135.1Y-92.1
X137.75Y-107.45
X137.75Y-112.45
X138.76Y-64.18
X138.76Y-69.18
X144.55Y-96.9
X144.55Y-101.9
X148.25Y-73.6
X153.25Y-73.6
T4
X102.12Y-73.61
X102.12Y-88.85
X104.659Y-73.61
X104.659Y-88.85
X107.2Y-73.61
X107.2Y-88.85
X109.739Y-73.61
X109.739Y-88.85
X112.279Y-73.61
X112.279Y-88.85
X114.819Y-73.61
X114.819Y-88.85
X117.359Y-73.61
X117.359Y-88.85
X119.899Y-73.61
X119.899Y-88.85
X122.439Y-73.61
X122.439Y-88.85
X124.979Y-73.61
X124.979Y-88.85
X127.519Y-73.61
X127.519Y-88.85
X130.059Y-73.61
X130.059Y-88.85
X132.6Y-73.61
X132.6Y-88.85
X135.139Y-73.61
X135.139Y-88.85
X137.679Y-73.61
X137.679Y-88.85
T5
X109.3Y-97.02
X109.3Y-99.56
X109.3Y-102.1
X137.72Y-96.96
X137.72Y-99.5
X137.72Y-102.04
X144.54Y-62.94
X144.54Y-65.48
X144.54Y-68.02
X148.11Y-78.63
X153.555Y-62.99
X153.555Y-65.53
X153.555Y-68.07
X155.73Y-78.63
T6
X91.29Y-66.44
X91.29Y-68.98
X91.29Y-71.52
X91.92Y-101.38
X94.46Y-101.38
X97.0Y-101.38
X99.54Y-101.38
X115.04Y-66.53
X117.58Y-66.53
X119.85Y-102.1
X120.12Y-66.53
X122.39Y-102.1
X122.39Y-111.57
X122.66Y-66.53
X124.93Y-102.1
X124.93Y-111.57
X126.99Y-66.53
X127.47Y-102.1
X127.47Y-111.57
X129.53Y-66.53
X130.01Y-102.1
X130.01Y-111.57
X132.07Y-66.53
X134.61Y-66.53
X155.64Y-82.71
X155.64Y-85.25
T7
X87.45Y-60.6
X87.45Y-112.1
X160.9Y-60.6
X160.9Y-111.825
T0
M30
