%TF.GenerationSoftware,KiCad,Pcbnew,7.0.9*%
%TF.CreationDate,2023-11-29T22:58:18+01:00*%
%TF.ProjectId,vfo-do,76666f2d-646f-42e6-9b69-6361645f7063,rev?*%
%TF.SameCoordinates,Original*%
%TF.FileFunction,Drillmap*%
%TF.FilePolarity,Positive*%
%FSLAX45Y45*%
G04 Gerber Fmt 4.5, Leading zero omitted, Abs format (unit mm)*
G04 Created by KiCad (PCBNEW 7.0.9) date 2023-11-29 22:58:18*
%MOMM*%
%LPD*%
G01*
G04 APERTURE LIST*
%ADD10C,0.100000*%
%ADD11C,0.200000*%
G04 APERTURE END LIST*
D10*
X8300000Y-5600000D02*
X16600000Y-5600000D01*
X16600000Y-11600000D01*
X8300000Y-11600000D01*
X8300000Y-5600000D01*
D11*
X8555777Y-11916484D02*
X8555777Y-11716484D01*
X8555777Y-11716484D02*
X8603396Y-11716484D01*
X8603396Y-11716484D02*
X8631967Y-11726008D01*
X8631967Y-11726008D02*
X8651015Y-11745055D01*
X8651015Y-11745055D02*
X8660539Y-11764103D01*
X8660539Y-11764103D02*
X8670063Y-11802198D01*
X8670063Y-11802198D02*
X8670063Y-11830769D01*
X8670063Y-11830769D02*
X8660539Y-11868865D01*
X8660539Y-11868865D02*
X8651015Y-11887912D01*
X8651015Y-11887912D02*
X8631967Y-11906960D01*
X8631967Y-11906960D02*
X8603396Y-11916484D01*
X8603396Y-11916484D02*
X8555777Y-11916484D01*
X8755777Y-11916484D02*
X8755777Y-11783150D01*
X8755777Y-11821246D02*
X8765301Y-11802198D01*
X8765301Y-11802198D02*
X8774824Y-11792674D01*
X8774824Y-11792674D02*
X8793872Y-11783150D01*
X8793872Y-11783150D02*
X8812920Y-11783150D01*
X8879586Y-11916484D02*
X8879586Y-11783150D01*
X8879586Y-11716484D02*
X8870063Y-11726008D01*
X8870063Y-11726008D02*
X8879586Y-11735531D01*
X8879586Y-11735531D02*
X8889110Y-11726008D01*
X8889110Y-11726008D02*
X8879586Y-11716484D01*
X8879586Y-11716484D02*
X8879586Y-11735531D01*
X9003396Y-11916484D02*
X8984348Y-11906960D01*
X8984348Y-11906960D02*
X8974824Y-11887912D01*
X8974824Y-11887912D02*
X8974824Y-11716484D01*
X9108158Y-11916484D02*
X9089110Y-11906960D01*
X9089110Y-11906960D02*
X9079586Y-11887912D01*
X9079586Y-11887912D02*
X9079586Y-11716484D01*
X9336729Y-11916484D02*
X9336729Y-11716484D01*
X9336729Y-11716484D02*
X9403396Y-11859341D01*
X9403396Y-11859341D02*
X9470063Y-11716484D01*
X9470063Y-11716484D02*
X9470063Y-11916484D01*
X9651015Y-11916484D02*
X9651015Y-11811722D01*
X9651015Y-11811722D02*
X9641491Y-11792674D01*
X9641491Y-11792674D02*
X9622444Y-11783150D01*
X9622444Y-11783150D02*
X9584348Y-11783150D01*
X9584348Y-11783150D02*
X9565301Y-11792674D01*
X9651015Y-11906960D02*
X9631967Y-11916484D01*
X9631967Y-11916484D02*
X9584348Y-11916484D01*
X9584348Y-11916484D02*
X9565301Y-11906960D01*
X9565301Y-11906960D02*
X9555777Y-11887912D01*
X9555777Y-11887912D02*
X9555777Y-11868865D01*
X9555777Y-11868865D02*
X9565301Y-11849817D01*
X9565301Y-11849817D02*
X9584348Y-11840293D01*
X9584348Y-11840293D02*
X9631967Y-11840293D01*
X9631967Y-11840293D02*
X9651015Y-11830769D01*
X9746253Y-11783150D02*
X9746253Y-11983150D01*
X9746253Y-11792674D02*
X9765301Y-11783150D01*
X9765301Y-11783150D02*
X9803396Y-11783150D01*
X9803396Y-11783150D02*
X9822444Y-11792674D01*
X9822444Y-11792674D02*
X9831967Y-11802198D01*
X9831967Y-11802198D02*
X9841491Y-11821246D01*
X9841491Y-11821246D02*
X9841491Y-11878388D01*
X9841491Y-11878388D02*
X9831967Y-11897436D01*
X9831967Y-11897436D02*
X9822444Y-11906960D01*
X9822444Y-11906960D02*
X9803396Y-11916484D01*
X9803396Y-11916484D02*
X9765301Y-11916484D01*
X9765301Y-11916484D02*
X9746253Y-11906960D01*
X9927205Y-11897436D02*
X9936729Y-11906960D01*
X9936729Y-11906960D02*
X9927205Y-11916484D01*
X9927205Y-11916484D02*
X9917682Y-11906960D01*
X9917682Y-11906960D02*
X9927205Y-11897436D01*
X9927205Y-11897436D02*
X9927205Y-11916484D01*
X9927205Y-11792674D02*
X9936729Y-11802198D01*
X9936729Y-11802198D02*
X9927205Y-11811722D01*
X9927205Y-11811722D02*
X9917682Y-11802198D01*
X9917682Y-11802198D02*
X9927205Y-11792674D01*
X9927205Y-11792674D02*
X9927205Y-11811722D01*
M02*
