%TF.GenerationSoftware,KiCad,Pcbnew,7.0.9*%
%TF.CreationDate,2023-11-29T22:58:18+01:00*%
%TF.ProjectId,vfo-do,76666f2d-646f-42e6-9b69-6361645f7063,rev?*%
%TF.SameCoordinates,Original*%
%TF.FileFunction,Drillmap*%
%TF.FilePolarity,Positive*%
%FSLAX45Y45*%
G04 Gerber Fmt 4.5, Leading zero omitted, Abs format (unit mm)*
G04 Created by KiCad (PCBNEW 7.0.9) date 2023-11-29 22:58:18*
%MOMM*%
%LPD*%
G01*
G04 APERTURE LIST*
%ADD10C,0.100000*%
%ADD11C,0.200000*%
%ADD12C,0.101600*%
%ADD13C,0.110000*%
%ADD14C,0.119000*%
%ADD15C,0.320000*%
G04 APERTURE END LIST*
D10*
X8300000Y-5600000D02*
X16600000Y-5600000D01*
X16600000Y-11600000D01*
X8300000Y-11600000D01*
X8300000Y-5600000D01*
D11*
D10*
X12970000Y-9455000D02*
X13010000Y-9495000D01*
X13010000Y-9455000D02*
X12970000Y-9495000D01*
X13430000Y-8525000D02*
X13470000Y-8565000D01*
X13470000Y-8525000D02*
X13430000Y-8565000D01*
X8530000Y-6060000D02*
G75*
G03*
X8530000Y-6060000I-25000J0D01*
G01*
X8530000Y-11210000D02*
G75*
G03*
X8530000Y-11210000I-25000J0D01*
G01*
X8600294Y-5890294D02*
G75*
G03*
X8600294Y-5890294I-25000J0D01*
G01*
X8600294Y-6229706D02*
G75*
G03*
X8600294Y-6229706I-25000J0D01*
G01*
X8600294Y-11040294D02*
G75*
G03*
X8600294Y-11040294I-25000J0D01*
G01*
X8600294Y-11379706D02*
G75*
G03*
X8600294Y-11379706I-25000J0D01*
G01*
X8770000Y-5820000D02*
G75*
G03*
X8770000Y-5820000I-25000J0D01*
G01*
X8770000Y-6300000D02*
G75*
G03*
X8770000Y-6300000I-25000J0D01*
G01*
X8770000Y-10970000D02*
G75*
G03*
X8770000Y-10970000I-25000J0D01*
G01*
X8770000Y-11450000D02*
G75*
G03*
X8770000Y-11450000I-25000J0D01*
G01*
X8939706Y-5890294D02*
G75*
G03*
X8939706Y-5890294I-25000J0D01*
G01*
X8939706Y-6229706D02*
G75*
G03*
X8939706Y-6229706I-25000J0D01*
G01*
X8939706Y-11040294D02*
G75*
G03*
X8939706Y-11040294I-25000J0D01*
G01*
X8939706Y-11379706D02*
G75*
G03*
X8939706Y-11379706I-25000J0D01*
G01*
X9010000Y-6060000D02*
G75*
G03*
X9010000Y-6060000I-25000J0D01*
G01*
X9010000Y-11210000D02*
G75*
G03*
X9010000Y-11210000I-25000J0D01*
G01*
X15875000Y-6060000D02*
G75*
G03*
X15875000Y-6060000I-25000J0D01*
G01*
X15875000Y-11182500D02*
G75*
G03*
X15875000Y-11182500I-25000J0D01*
G01*
X15945294Y-5890294D02*
G75*
G03*
X15945294Y-5890294I-25000J0D01*
G01*
X15945294Y-6229706D02*
G75*
G03*
X15945294Y-6229706I-25000J0D01*
G01*
X15945294Y-11012794D02*
G75*
G03*
X15945294Y-11012794I-25000J0D01*
G01*
X15945294Y-11352206D02*
G75*
G03*
X15945294Y-11352206I-25000J0D01*
G01*
X16115000Y-5820000D02*
G75*
G03*
X16115000Y-5820000I-25000J0D01*
G01*
X16115000Y-6300000D02*
G75*
G03*
X16115000Y-6300000I-25000J0D01*
G01*
X16115000Y-10942500D02*
G75*
G03*
X16115000Y-10942500I-25000J0D01*
G01*
X16115000Y-11422500D02*
G75*
G03*
X16115000Y-11422500I-25000J0D01*
G01*
X16284706Y-5890294D02*
G75*
G03*
X16284706Y-5890294I-25000J0D01*
G01*
X16284706Y-6229706D02*
G75*
G03*
X16284706Y-6229706I-25000J0D01*
G01*
X16284706Y-11012794D02*
G75*
G03*
X16284706Y-11012794I-25000J0D01*
G01*
X16284706Y-11352206D02*
G75*
G03*
X16284706Y-11352206I-25000J0D01*
G01*
X16355000Y-6060000D02*
G75*
G03*
X16355000Y-6060000I-25000J0D01*
G01*
X16355000Y-11182500D02*
G75*
G03*
X16355000Y-11182500I-25000J0D01*
G01*
X10425000Y-10715000D02*
X10425000Y-10795000D01*
X10385000Y-10755000D02*
X10465000Y-10755000D01*
X10925000Y-10715000D02*
X10925000Y-10795000D01*
X10885000Y-10755000D02*
X10965000Y-10755000D01*
X11485000Y-9405000D02*
X11485000Y-9485000D01*
X11445000Y-9445000D02*
X11525000Y-9445000D01*
X11985000Y-9405000D02*
X11985000Y-9485000D01*
X11945000Y-9445000D02*
X12025000Y-9445000D01*
X13010000Y-9170000D02*
X13010000Y-9250000D01*
X12970000Y-9210000D02*
X13050000Y-9210000D01*
X13510000Y-9170000D02*
X13510000Y-9250000D01*
X13470000Y-9210000D02*
X13550000Y-9210000D01*
X13775000Y-10705000D02*
X13775000Y-10785000D01*
X13735000Y-10745000D02*
X13815000Y-10745000D01*
X13775000Y-11205000D02*
X13775000Y-11285000D01*
X13735000Y-11245000D02*
X13815000Y-11245000D01*
X13876000Y-6378000D02*
X13876000Y-6458000D01*
X13836000Y-6418000D02*
X13916000Y-6418000D01*
X13876000Y-6878000D02*
X13876000Y-6958000D01*
X13836000Y-6918000D02*
X13916000Y-6918000D01*
X14455000Y-9650000D02*
X14455000Y-9730000D01*
X14415000Y-9690000D02*
X14495000Y-9690000D01*
X14455000Y-10150000D02*
X14455000Y-10230000D01*
X14415000Y-10190000D02*
X14495000Y-10190000D01*
X14825000Y-7320000D02*
X14825000Y-7400000D01*
X14785000Y-7360000D02*
X14865000Y-7360000D01*
X15325000Y-7320000D02*
X15325000Y-7400000D01*
X15285000Y-7360000D02*
X15365000Y-7360000D01*
D12*
X10247871Y-7396921D02*
X10247871Y-7325079D01*
X10176029Y-7325079D01*
X10176029Y-7396921D01*
X10247871Y-7396921D01*
X10247871Y-8920921D02*
X10247871Y-8849079D01*
X10176029Y-8849079D01*
X10176029Y-8920921D01*
X10247871Y-8920921D01*
X10501871Y-7396921D02*
X10501871Y-7325079D01*
X10430029Y-7325079D01*
X10430029Y-7396921D01*
X10501871Y-7396921D01*
X10501871Y-8920921D02*
X10501871Y-8849079D01*
X10430029Y-8849079D01*
X10430029Y-8920921D01*
X10501871Y-8920921D01*
X10755871Y-7396921D02*
X10755871Y-7325079D01*
X10684029Y-7325079D01*
X10684029Y-7396921D01*
X10755871Y-7396921D01*
X10755871Y-8920921D02*
X10755871Y-8849079D01*
X10684029Y-8849079D01*
X10684029Y-8920921D01*
X10755871Y-8920921D01*
X11009871Y-7396921D02*
X11009871Y-7325079D01*
X10938029Y-7325079D01*
X10938029Y-7396921D01*
X11009871Y-7396921D01*
X11009871Y-8920921D02*
X11009871Y-8849079D01*
X10938029Y-8849079D01*
X10938029Y-8920921D01*
X11009871Y-8920921D01*
X11263871Y-7396921D02*
X11263871Y-7325079D01*
X11192029Y-7325079D01*
X11192029Y-7396921D01*
X11263871Y-7396921D01*
X11263871Y-8920921D02*
X11263871Y-8849079D01*
X11192029Y-8849079D01*
X11192029Y-8920921D01*
X11263871Y-8920921D01*
X11517871Y-7396921D02*
X11517871Y-7325079D01*
X11446029Y-7325079D01*
X11446029Y-7396921D01*
X11517871Y-7396921D01*
X11517871Y-8920921D02*
X11517871Y-8849079D01*
X11446029Y-8849079D01*
X11446029Y-8920921D01*
X11517871Y-8920921D01*
X11771871Y-7396921D02*
X11771871Y-7325079D01*
X11700029Y-7325079D01*
X11700029Y-7396921D01*
X11771871Y-7396921D01*
X11771871Y-8920921D02*
X11771871Y-8849079D01*
X11700029Y-8849079D01*
X11700029Y-8920921D01*
X11771871Y-8920921D01*
X12025871Y-7396921D02*
X12025871Y-7325079D01*
X11954029Y-7325079D01*
X11954029Y-7396921D01*
X12025871Y-7396921D01*
X12025871Y-8920921D02*
X12025871Y-8849079D01*
X11954029Y-8849079D01*
X11954029Y-8920921D01*
X12025871Y-8920921D01*
X12279871Y-7396921D02*
X12279871Y-7325079D01*
X12208029Y-7325079D01*
X12208029Y-7396921D01*
X12279871Y-7396921D01*
X12279871Y-8920921D02*
X12279871Y-8849079D01*
X12208029Y-8849079D01*
X12208029Y-8920921D01*
X12279871Y-8920921D01*
X12533871Y-7396921D02*
X12533871Y-7325079D01*
X12462029Y-7325079D01*
X12462029Y-7396921D01*
X12533871Y-7396921D01*
X12533871Y-8920921D02*
X12533871Y-8849079D01*
X12462029Y-8849079D01*
X12462029Y-8920921D01*
X12533871Y-8920921D01*
X12787871Y-7396921D02*
X12787871Y-7325079D01*
X12716029Y-7325079D01*
X12716029Y-7396921D01*
X12787871Y-7396921D01*
X12787871Y-8920921D02*
X12787871Y-8849079D01*
X12716029Y-8849079D01*
X12716029Y-8920921D01*
X12787871Y-8920921D01*
X13041871Y-7396921D02*
X13041871Y-7325079D01*
X12970029Y-7325079D01*
X12970029Y-7396921D01*
X13041871Y-7396921D01*
X13041871Y-8920921D02*
X13041871Y-8849079D01*
X12970029Y-8849079D01*
X12970029Y-8920921D01*
X13041871Y-8920921D01*
X13295871Y-7396921D02*
X13295871Y-7325079D01*
X13224029Y-7325079D01*
X13224029Y-7396921D01*
X13295871Y-7396921D01*
X13295871Y-8920921D02*
X13295871Y-8849079D01*
X13224029Y-8849079D01*
X13224029Y-8920921D01*
X13295871Y-8920921D01*
X13549871Y-7396921D02*
X13549871Y-7325079D01*
X13478029Y-7325079D01*
X13478029Y-7396921D01*
X13549871Y-7396921D01*
X13549871Y-8920921D02*
X13549871Y-8849079D01*
X13478029Y-8849079D01*
X13478029Y-8920921D01*
X13549871Y-8920921D01*
X13803871Y-7396921D02*
X13803871Y-7325079D01*
X13732029Y-7325079D01*
X13732029Y-7396921D01*
X13803871Y-7396921D01*
X13803871Y-8920921D02*
X13803871Y-8849079D01*
X13732029Y-8849079D01*
X13732029Y-8920921D01*
X13803871Y-8920921D01*
D13*
X10930000Y-9757000D02*
X10985000Y-9702000D01*
X10930000Y-9647000D01*
X10875000Y-9702000D01*
X10930000Y-9757000D01*
X10930000Y-10011000D02*
X10985000Y-9956000D01*
X10930000Y-9901000D01*
X10875000Y-9956000D01*
X10930000Y-10011000D01*
X10930000Y-10265000D02*
X10985000Y-10210000D01*
X10930000Y-10155000D01*
X10875000Y-10210000D01*
X10930000Y-10265000D01*
X13772000Y-9751000D02*
X13827000Y-9696000D01*
X13772000Y-9641000D01*
X13717000Y-9696000D01*
X13772000Y-9751000D01*
X13772000Y-10005000D02*
X13827000Y-9950000D01*
X13772000Y-9895000D01*
X13717000Y-9950000D01*
X13772000Y-10005000D01*
X13772000Y-10259000D02*
X13827000Y-10204000D01*
X13772000Y-10149000D01*
X13717000Y-10204000D01*
X13772000Y-10259000D01*
X14454000Y-6349000D02*
X14509000Y-6294000D01*
X14454000Y-6239000D01*
X14399000Y-6294000D01*
X14454000Y-6349000D01*
X14454000Y-6603000D02*
X14509000Y-6548000D01*
X14454000Y-6493000D01*
X14399000Y-6548000D01*
X14454000Y-6603000D01*
X14454000Y-6857000D02*
X14509000Y-6802000D01*
X14454000Y-6747000D01*
X14399000Y-6802000D01*
X14454000Y-6857000D01*
X14811000Y-7918000D02*
X14866000Y-7863000D01*
X14811000Y-7808000D01*
X14756000Y-7863000D01*
X14811000Y-7918000D01*
X15355500Y-6354000D02*
X15410500Y-6299000D01*
X15355500Y-6244000D01*
X15300500Y-6299000D01*
X15355500Y-6354000D01*
X15355500Y-6608000D02*
X15410500Y-6553000D01*
X15355500Y-6498000D01*
X15300500Y-6553000D01*
X15355500Y-6608000D01*
X15355500Y-6862000D02*
X15410500Y-6807000D01*
X15355500Y-6752000D01*
X15300500Y-6807000D01*
X15355500Y-6862000D01*
X15573000Y-7918000D02*
X15628000Y-7863000D01*
X15573000Y-7808000D01*
X15518000Y-7863000D01*
X15573000Y-7918000D01*
D14*
X9069500Y-6584500D02*
X9188500Y-6703500D01*
X9188500Y-6584500D02*
X9069500Y-6703500D01*
X9188500Y-6644000D02*
G75*
G03*
X9188500Y-6644000I-59500J0D01*
G01*
X9069500Y-6838500D02*
X9188500Y-6957500D01*
X9188500Y-6838500D02*
X9069500Y-6957500D01*
X9188500Y-6898000D02*
G75*
G03*
X9188500Y-6898000I-59500J0D01*
G01*
X9069500Y-7092500D02*
X9188500Y-7211500D01*
X9188500Y-7092500D02*
X9069500Y-7211500D01*
X9188500Y-7152000D02*
G75*
G03*
X9188500Y-7152000I-59500J0D01*
G01*
X9132500Y-10078500D02*
X9251500Y-10197500D01*
X9251500Y-10078500D02*
X9132500Y-10197500D01*
X9251500Y-10138000D02*
G75*
G03*
X9251500Y-10138000I-59500J0D01*
G01*
X9386500Y-10078500D02*
X9505500Y-10197500D01*
X9505500Y-10078500D02*
X9386500Y-10197500D01*
X9505500Y-10138000D02*
G75*
G03*
X9505500Y-10138000I-59500J0D01*
G01*
X9640500Y-10078500D02*
X9759500Y-10197500D01*
X9759500Y-10078500D02*
X9640500Y-10197500D01*
X9759500Y-10138000D02*
G75*
G03*
X9759500Y-10138000I-59500J0D01*
G01*
X9894500Y-10078500D02*
X10013500Y-10197500D01*
X10013500Y-10078500D02*
X9894500Y-10197500D01*
X10013500Y-10138000D02*
G75*
G03*
X10013500Y-10138000I-59500J0D01*
G01*
X11444500Y-6593500D02*
X11563500Y-6712500D01*
X11563500Y-6593500D02*
X11444500Y-6712500D01*
X11563500Y-6653000D02*
G75*
G03*
X11563500Y-6653000I-59500J0D01*
G01*
X11698500Y-6593500D02*
X11817500Y-6712500D01*
X11817500Y-6593500D02*
X11698500Y-6712500D01*
X11817500Y-6653000D02*
G75*
G03*
X11817500Y-6653000I-59500J0D01*
G01*
X11925500Y-10150500D02*
X12044500Y-10269500D01*
X12044500Y-10150500D02*
X11925500Y-10269500D01*
X12044500Y-10210000D02*
G75*
G03*
X12044500Y-10210000I-59500J0D01*
G01*
X11952500Y-6593500D02*
X12071500Y-6712500D01*
X12071500Y-6593500D02*
X11952500Y-6712500D01*
X12071500Y-6653000D02*
G75*
G03*
X12071500Y-6653000I-59500J0D01*
G01*
X12179500Y-10150500D02*
X12298500Y-10269500D01*
X12298500Y-10150500D02*
X12179500Y-10269500D01*
X12298500Y-10210000D02*
G75*
G03*
X12298500Y-10210000I-59500J0D01*
G01*
X12179500Y-11097500D02*
X12298500Y-11216500D01*
X12298500Y-11097500D02*
X12179500Y-11216500D01*
X12298500Y-11157000D02*
G75*
G03*
X12298500Y-11157000I-59500J0D01*
G01*
X12206500Y-6593500D02*
X12325500Y-6712500D01*
X12325500Y-6593500D02*
X12206500Y-6712500D01*
X12325500Y-6653000D02*
G75*
G03*
X12325500Y-6653000I-59500J0D01*
G01*
X12433500Y-10150500D02*
X12552500Y-10269500D01*
X12552500Y-10150500D02*
X12433500Y-10269500D01*
X12552500Y-10210000D02*
G75*
G03*
X12552500Y-10210000I-59500J0D01*
G01*
X12433500Y-11097500D02*
X12552500Y-11216500D01*
X12552500Y-11097500D02*
X12433500Y-11216500D01*
X12552500Y-11157000D02*
G75*
G03*
X12552500Y-11157000I-59500J0D01*
G01*
X12639500Y-6593500D02*
X12758500Y-6712500D01*
X12758500Y-6593500D02*
X12639500Y-6712500D01*
X12758500Y-6653000D02*
G75*
G03*
X12758500Y-6653000I-59500J0D01*
G01*
X12687500Y-10150500D02*
X12806500Y-10269500D01*
X12806500Y-10150500D02*
X12687500Y-10269500D01*
X12806500Y-10210000D02*
G75*
G03*
X12806500Y-10210000I-59500J0D01*
G01*
X12687500Y-11097500D02*
X12806500Y-11216500D01*
X12806500Y-11097500D02*
X12687500Y-11216500D01*
X12806500Y-11157000D02*
G75*
G03*
X12806500Y-11157000I-59500J0D01*
G01*
X12893500Y-6593500D02*
X13012500Y-6712500D01*
X13012500Y-6593500D02*
X12893500Y-6712500D01*
X13012500Y-6653000D02*
G75*
G03*
X13012500Y-6653000I-59500J0D01*
G01*
X12941500Y-10150500D02*
X13060500Y-10269500D01*
X13060500Y-10150500D02*
X12941500Y-10269500D01*
X13060500Y-10210000D02*
G75*
G03*
X13060500Y-10210000I-59500J0D01*
G01*
X12941500Y-11097500D02*
X13060500Y-11216500D01*
X13060500Y-11097500D02*
X12941500Y-11216500D01*
X13060500Y-11157000D02*
G75*
G03*
X13060500Y-11157000I-59500J0D01*
G01*
X13147500Y-6593500D02*
X13266500Y-6712500D01*
X13266500Y-6593500D02*
X13147500Y-6712500D01*
X13266500Y-6653000D02*
G75*
G03*
X13266500Y-6653000I-59500J0D01*
G01*
X13401500Y-6593500D02*
X13520500Y-6712500D01*
X13520500Y-6593500D02*
X13401500Y-6712500D01*
X13520500Y-6653000D02*
G75*
G03*
X13520500Y-6653000I-59500J0D01*
G01*
X15504500Y-8211500D02*
X15623500Y-8330500D01*
X15623500Y-8211500D02*
X15504500Y-8330500D01*
X15623500Y-8271000D02*
G75*
G03*
X15623500Y-8271000I-59500J0D01*
G01*
X15504500Y-8465500D02*
X15623500Y-8584500D01*
X15623500Y-8465500D02*
X15504500Y-8584500D01*
X15623500Y-8525000D02*
G75*
G03*
X15623500Y-8525000I-59500J0D01*
G01*
D15*
X8585000Y-5900000D02*
X8905000Y-6220000D01*
X8905000Y-5900000D02*
X8585000Y-6220000D01*
X8745000Y-5900000D02*
X8745000Y-6220000D01*
X8585000Y-6060000D02*
X8905000Y-6060000D01*
X8585000Y-11050000D02*
X8905000Y-11370000D01*
X8905000Y-11050000D02*
X8585000Y-11370000D01*
X8745000Y-11050000D02*
X8745000Y-11370000D01*
X8585000Y-11210000D02*
X8905000Y-11210000D01*
X15930000Y-5900000D02*
X16250000Y-6220000D01*
X16250000Y-5900000D02*
X15930000Y-6220000D01*
X16090000Y-5900000D02*
X16090000Y-6220000D01*
X15930000Y-6060000D02*
X16250000Y-6060000D01*
X15930000Y-11022500D02*
X16250000Y-11342500D01*
X16250000Y-11022500D02*
X15930000Y-11342500D01*
X16090000Y-11022500D02*
X16090000Y-11342500D01*
X15930000Y-11182500D02*
X16250000Y-11182500D01*
D11*
X8555777Y-11916484D02*
X8555777Y-11716484D01*
X8555777Y-11716484D02*
X8603396Y-11716484D01*
X8603396Y-11716484D02*
X8631967Y-11726008D01*
X8631967Y-11726008D02*
X8651015Y-11745055D01*
X8651015Y-11745055D02*
X8660539Y-11764103D01*
X8660539Y-11764103D02*
X8670063Y-11802198D01*
X8670063Y-11802198D02*
X8670063Y-11830769D01*
X8670063Y-11830769D02*
X8660539Y-11868865D01*
X8660539Y-11868865D02*
X8651015Y-11887912D01*
X8651015Y-11887912D02*
X8631967Y-11906960D01*
X8631967Y-11906960D02*
X8603396Y-11916484D01*
X8603396Y-11916484D02*
X8555777Y-11916484D01*
X8755777Y-11916484D02*
X8755777Y-11783150D01*
X8755777Y-11821246D02*
X8765301Y-11802198D01*
X8765301Y-11802198D02*
X8774824Y-11792674D01*
X8774824Y-11792674D02*
X8793872Y-11783150D01*
X8793872Y-11783150D02*
X8812920Y-11783150D01*
X8879586Y-11916484D02*
X8879586Y-11783150D01*
X8879586Y-11716484D02*
X8870063Y-11726008D01*
X8870063Y-11726008D02*
X8879586Y-11735531D01*
X8879586Y-11735531D02*
X8889110Y-11726008D01*
X8889110Y-11726008D02*
X8879586Y-11716484D01*
X8879586Y-11716484D02*
X8879586Y-11735531D01*
X9003396Y-11916484D02*
X8984348Y-11906960D01*
X8984348Y-11906960D02*
X8974824Y-11887912D01*
X8974824Y-11887912D02*
X8974824Y-11716484D01*
X9108158Y-11916484D02*
X9089110Y-11906960D01*
X9089110Y-11906960D02*
X9079586Y-11887912D01*
X9079586Y-11887912D02*
X9079586Y-11716484D01*
X9336729Y-11916484D02*
X9336729Y-11716484D01*
X9336729Y-11716484D02*
X9403396Y-11859341D01*
X9403396Y-11859341D02*
X9470063Y-11716484D01*
X9470063Y-11716484D02*
X9470063Y-11916484D01*
X9651015Y-11916484D02*
X9651015Y-11811722D01*
X9651015Y-11811722D02*
X9641491Y-11792674D01*
X9641491Y-11792674D02*
X9622444Y-11783150D01*
X9622444Y-11783150D02*
X9584348Y-11783150D01*
X9584348Y-11783150D02*
X9565301Y-11792674D01*
X9651015Y-11906960D02*
X9631967Y-11916484D01*
X9631967Y-11916484D02*
X9584348Y-11916484D01*
X9584348Y-11916484D02*
X9565301Y-11906960D01*
X9565301Y-11906960D02*
X9555777Y-11887912D01*
X9555777Y-11887912D02*
X9555777Y-11868865D01*
X9555777Y-11868865D02*
X9565301Y-11849817D01*
X9565301Y-11849817D02*
X9584348Y-11840293D01*
X9584348Y-11840293D02*
X9631967Y-11840293D01*
X9631967Y-11840293D02*
X9651015Y-11830769D01*
X9746253Y-11783150D02*
X9746253Y-11983150D01*
X9746253Y-11792674D02*
X9765301Y-11783150D01*
X9765301Y-11783150D02*
X9803396Y-11783150D01*
X9803396Y-11783150D02*
X9822444Y-11792674D01*
X9822444Y-11792674D02*
X9831967Y-11802198D01*
X9831967Y-11802198D02*
X9841491Y-11821246D01*
X9841491Y-11821246D02*
X9841491Y-11878388D01*
X9841491Y-11878388D02*
X9831967Y-11897436D01*
X9831967Y-11897436D02*
X9822444Y-11906960D01*
X9822444Y-11906960D02*
X9803396Y-11916484D01*
X9803396Y-11916484D02*
X9765301Y-11916484D01*
X9765301Y-11916484D02*
X9746253Y-11906960D01*
X9927205Y-11897436D02*
X9936729Y-11906960D01*
X9936729Y-11906960D02*
X9927205Y-11916484D01*
X9927205Y-11916484D02*
X9917682Y-11906960D01*
X9917682Y-11906960D02*
X9927205Y-11897436D01*
X9927205Y-11897436D02*
X9927205Y-11916484D01*
X9927205Y-11792674D02*
X9936729Y-11802198D01*
X9936729Y-11802198D02*
X9927205Y-11811722D01*
X9927205Y-11811722D02*
X9917682Y-11802198D01*
X9917682Y-11802198D02*
X9927205Y-11792674D01*
X9927205Y-11792674D02*
X9927205Y-11811722D01*
D10*
X8255000Y-12225000D02*
X8295000Y-12265000D01*
X8295000Y-12225000D02*
X8255000Y-12265000D01*
D11*
X8593872Y-12136484D02*
X8612920Y-12136484D01*
X8612920Y-12136484D02*
X8631967Y-12146008D01*
X8631967Y-12146008D02*
X8641491Y-12155531D01*
X8641491Y-12155531D02*
X8651015Y-12174579D01*
X8651015Y-12174579D02*
X8660539Y-12212674D01*
X8660539Y-12212674D02*
X8660539Y-12260293D01*
X8660539Y-12260293D02*
X8651015Y-12298388D01*
X8651015Y-12298388D02*
X8641491Y-12317436D01*
X8641491Y-12317436D02*
X8631967Y-12326960D01*
X8631967Y-12326960D02*
X8612920Y-12336484D01*
X8612920Y-12336484D02*
X8593872Y-12336484D01*
X8593872Y-12336484D02*
X8574824Y-12326960D01*
X8574824Y-12326960D02*
X8565301Y-12317436D01*
X8565301Y-12317436D02*
X8555777Y-12298388D01*
X8555777Y-12298388D02*
X8546253Y-12260293D01*
X8546253Y-12260293D02*
X8546253Y-12212674D01*
X8546253Y-12212674D02*
X8555777Y-12174579D01*
X8555777Y-12174579D02*
X8565301Y-12155531D01*
X8565301Y-12155531D02*
X8574824Y-12146008D01*
X8574824Y-12146008D02*
X8593872Y-12136484D01*
X8746253Y-12317436D02*
X8755777Y-12326960D01*
X8755777Y-12326960D02*
X8746253Y-12336484D01*
X8746253Y-12336484D02*
X8736729Y-12326960D01*
X8736729Y-12326960D02*
X8746253Y-12317436D01*
X8746253Y-12317436D02*
X8746253Y-12336484D01*
X8927205Y-12203150D02*
X8927205Y-12336484D01*
X8879586Y-12126960D02*
X8831967Y-12269817D01*
X8831967Y-12269817D02*
X8955777Y-12269817D01*
X9070063Y-12136484D02*
X9089110Y-12136484D01*
X9089110Y-12136484D02*
X9108158Y-12146008D01*
X9108158Y-12146008D02*
X9117682Y-12155531D01*
X9117682Y-12155531D02*
X9127205Y-12174579D01*
X9127205Y-12174579D02*
X9136729Y-12212674D01*
X9136729Y-12212674D02*
X9136729Y-12260293D01*
X9136729Y-12260293D02*
X9127205Y-12298388D01*
X9127205Y-12298388D02*
X9117682Y-12317436D01*
X9117682Y-12317436D02*
X9108158Y-12326960D01*
X9108158Y-12326960D02*
X9089110Y-12336484D01*
X9089110Y-12336484D02*
X9070063Y-12336484D01*
X9070063Y-12336484D02*
X9051015Y-12326960D01*
X9051015Y-12326960D02*
X9041491Y-12317436D01*
X9041491Y-12317436D02*
X9031967Y-12298388D01*
X9031967Y-12298388D02*
X9022444Y-12260293D01*
X9022444Y-12260293D02*
X9022444Y-12212674D01*
X9022444Y-12212674D02*
X9031967Y-12174579D01*
X9031967Y-12174579D02*
X9041491Y-12155531D01*
X9041491Y-12155531D02*
X9051015Y-12146008D01*
X9051015Y-12146008D02*
X9070063Y-12136484D01*
X9260539Y-12136484D02*
X9279586Y-12136484D01*
X9279586Y-12136484D02*
X9298634Y-12146008D01*
X9298634Y-12146008D02*
X9308158Y-12155531D01*
X9308158Y-12155531D02*
X9317682Y-12174579D01*
X9317682Y-12174579D02*
X9327205Y-12212674D01*
X9327205Y-12212674D02*
X9327205Y-12260293D01*
X9327205Y-12260293D02*
X9317682Y-12298388D01*
X9317682Y-12298388D02*
X9308158Y-12317436D01*
X9308158Y-12317436D02*
X9298634Y-12326960D01*
X9298634Y-12326960D02*
X9279586Y-12336484D01*
X9279586Y-12336484D02*
X9260539Y-12336484D01*
X9260539Y-12336484D02*
X9241491Y-12326960D01*
X9241491Y-12326960D02*
X9231967Y-12317436D01*
X9231967Y-12317436D02*
X9222444Y-12298388D01*
X9222444Y-12298388D02*
X9212920Y-12260293D01*
X9212920Y-12260293D02*
X9212920Y-12212674D01*
X9212920Y-12212674D02*
X9222444Y-12174579D01*
X9222444Y-12174579D02*
X9231967Y-12155531D01*
X9231967Y-12155531D02*
X9241491Y-12146008D01*
X9241491Y-12146008D02*
X9260539Y-12136484D01*
X9412920Y-12336484D02*
X9412920Y-12203150D01*
X9412920Y-12222198D02*
X9422444Y-12212674D01*
X9422444Y-12212674D02*
X9441491Y-12203150D01*
X9441491Y-12203150D02*
X9470063Y-12203150D01*
X9470063Y-12203150D02*
X9489110Y-12212674D01*
X9489110Y-12212674D02*
X9498634Y-12231722D01*
X9498634Y-12231722D02*
X9498634Y-12336484D01*
X9498634Y-12231722D02*
X9508158Y-12212674D01*
X9508158Y-12212674D02*
X9527205Y-12203150D01*
X9527205Y-12203150D02*
X9555777Y-12203150D01*
X9555777Y-12203150D02*
X9574825Y-12212674D01*
X9574825Y-12212674D02*
X9584348Y-12231722D01*
X9584348Y-12231722D02*
X9584348Y-12336484D01*
X9679586Y-12336484D02*
X9679586Y-12203150D01*
X9679586Y-12222198D02*
X9689110Y-12212674D01*
X9689110Y-12212674D02*
X9708158Y-12203150D01*
X9708158Y-12203150D02*
X9736729Y-12203150D01*
X9736729Y-12203150D02*
X9755777Y-12212674D01*
X9755777Y-12212674D02*
X9765301Y-12231722D01*
X9765301Y-12231722D02*
X9765301Y-12336484D01*
X9765301Y-12231722D02*
X9774825Y-12212674D01*
X9774825Y-12212674D02*
X9793872Y-12203150D01*
X9793872Y-12203150D02*
X9822444Y-12203150D01*
X9822444Y-12203150D02*
X9841491Y-12212674D01*
X9841491Y-12212674D02*
X9851015Y-12231722D01*
X9851015Y-12231722D02*
X9851015Y-12336484D01*
X10241491Y-12126960D02*
X10070063Y-12384103D01*
X10498634Y-12136484D02*
X10517682Y-12136484D01*
X10517682Y-12136484D02*
X10536729Y-12146008D01*
X10536729Y-12146008D02*
X10546253Y-12155531D01*
X10546253Y-12155531D02*
X10555777Y-12174579D01*
X10555777Y-12174579D02*
X10565301Y-12212674D01*
X10565301Y-12212674D02*
X10565301Y-12260293D01*
X10565301Y-12260293D02*
X10555777Y-12298388D01*
X10555777Y-12298388D02*
X10546253Y-12317436D01*
X10546253Y-12317436D02*
X10536729Y-12326960D01*
X10536729Y-12326960D02*
X10517682Y-12336484D01*
X10517682Y-12336484D02*
X10498634Y-12336484D01*
X10498634Y-12336484D02*
X10479587Y-12326960D01*
X10479587Y-12326960D02*
X10470063Y-12317436D01*
X10470063Y-12317436D02*
X10460539Y-12298388D01*
X10460539Y-12298388D02*
X10451015Y-12260293D01*
X10451015Y-12260293D02*
X10451015Y-12212674D01*
X10451015Y-12212674D02*
X10460539Y-12174579D01*
X10460539Y-12174579D02*
X10470063Y-12155531D01*
X10470063Y-12155531D02*
X10479587Y-12146008D01*
X10479587Y-12146008D02*
X10498634Y-12136484D01*
X10651015Y-12317436D02*
X10660539Y-12326960D01*
X10660539Y-12326960D02*
X10651015Y-12336484D01*
X10651015Y-12336484D02*
X10641491Y-12326960D01*
X10641491Y-12326960D02*
X10651015Y-12317436D01*
X10651015Y-12317436D02*
X10651015Y-12336484D01*
X10784348Y-12136484D02*
X10803396Y-12136484D01*
X10803396Y-12136484D02*
X10822444Y-12146008D01*
X10822444Y-12146008D02*
X10831968Y-12155531D01*
X10831968Y-12155531D02*
X10841491Y-12174579D01*
X10841491Y-12174579D02*
X10851015Y-12212674D01*
X10851015Y-12212674D02*
X10851015Y-12260293D01*
X10851015Y-12260293D02*
X10841491Y-12298388D01*
X10841491Y-12298388D02*
X10831968Y-12317436D01*
X10831968Y-12317436D02*
X10822444Y-12326960D01*
X10822444Y-12326960D02*
X10803396Y-12336484D01*
X10803396Y-12336484D02*
X10784348Y-12336484D01*
X10784348Y-12336484D02*
X10765301Y-12326960D01*
X10765301Y-12326960D02*
X10755777Y-12317436D01*
X10755777Y-12317436D02*
X10746253Y-12298388D01*
X10746253Y-12298388D02*
X10736729Y-12260293D01*
X10736729Y-12260293D02*
X10736729Y-12212674D01*
X10736729Y-12212674D02*
X10746253Y-12174579D01*
X10746253Y-12174579D02*
X10755777Y-12155531D01*
X10755777Y-12155531D02*
X10765301Y-12146008D01*
X10765301Y-12146008D02*
X10784348Y-12136484D01*
X11041491Y-12336484D02*
X10927206Y-12336484D01*
X10984348Y-12336484D02*
X10984348Y-12136484D01*
X10984348Y-12136484D02*
X10965301Y-12165055D01*
X10965301Y-12165055D02*
X10946253Y-12184103D01*
X10946253Y-12184103D02*
X10927206Y-12193627D01*
X11222444Y-12136484D02*
X11127206Y-12136484D01*
X11127206Y-12136484D02*
X11117682Y-12231722D01*
X11117682Y-12231722D02*
X11127206Y-12222198D01*
X11127206Y-12222198D02*
X11146253Y-12212674D01*
X11146253Y-12212674D02*
X11193872Y-12212674D01*
X11193872Y-12212674D02*
X11212920Y-12222198D01*
X11212920Y-12222198D02*
X11222444Y-12231722D01*
X11222444Y-12231722D02*
X11231967Y-12250769D01*
X11231967Y-12250769D02*
X11231967Y-12298388D01*
X11231967Y-12298388D02*
X11222444Y-12317436D01*
X11222444Y-12317436D02*
X11212920Y-12326960D01*
X11212920Y-12326960D02*
X11193872Y-12336484D01*
X11193872Y-12336484D02*
X11146253Y-12336484D01*
X11146253Y-12336484D02*
X11127206Y-12326960D01*
X11127206Y-12326960D02*
X11117682Y-12317436D01*
X11298634Y-12136484D02*
X11431967Y-12136484D01*
X11431967Y-12136484D02*
X11346253Y-12336484D01*
X11498634Y-12136484D02*
X11498634Y-12174579D01*
X11574825Y-12136484D02*
X11574825Y-12174579D01*
X11870063Y-12412674D02*
X11860539Y-12403150D01*
X11860539Y-12403150D02*
X11841491Y-12374579D01*
X11841491Y-12374579D02*
X11831968Y-12355531D01*
X11831968Y-12355531D02*
X11822444Y-12326960D01*
X11822444Y-12326960D02*
X11812920Y-12279341D01*
X11812920Y-12279341D02*
X11812920Y-12241246D01*
X11812920Y-12241246D02*
X11822444Y-12193627D01*
X11822444Y-12193627D02*
X11831968Y-12165055D01*
X11831968Y-12165055D02*
X11841491Y-12146008D01*
X11841491Y-12146008D02*
X11860539Y-12117436D01*
X11860539Y-12117436D02*
X11870063Y-12107912D01*
X11936729Y-12155531D02*
X11946253Y-12146008D01*
X11946253Y-12146008D02*
X11965301Y-12136484D01*
X11965301Y-12136484D02*
X12012920Y-12136484D01*
X12012920Y-12136484D02*
X12031968Y-12146008D01*
X12031968Y-12146008D02*
X12041491Y-12155531D01*
X12041491Y-12155531D02*
X12051015Y-12174579D01*
X12051015Y-12174579D02*
X12051015Y-12193627D01*
X12051015Y-12193627D02*
X12041491Y-12222198D01*
X12041491Y-12222198D02*
X11927206Y-12336484D01*
X11927206Y-12336484D02*
X12051015Y-12336484D01*
X12289110Y-12336484D02*
X12289110Y-12136484D01*
X12374825Y-12336484D02*
X12374825Y-12231722D01*
X12374825Y-12231722D02*
X12365301Y-12212674D01*
X12365301Y-12212674D02*
X12346253Y-12203150D01*
X12346253Y-12203150D02*
X12317682Y-12203150D01*
X12317682Y-12203150D02*
X12298634Y-12212674D01*
X12298634Y-12212674D02*
X12289110Y-12222198D01*
X12498634Y-12336484D02*
X12479587Y-12326960D01*
X12479587Y-12326960D02*
X12470063Y-12317436D01*
X12470063Y-12317436D02*
X12460539Y-12298388D01*
X12460539Y-12298388D02*
X12460539Y-12241246D01*
X12460539Y-12241246D02*
X12470063Y-12222198D01*
X12470063Y-12222198D02*
X12479587Y-12212674D01*
X12479587Y-12212674D02*
X12498634Y-12203150D01*
X12498634Y-12203150D02*
X12527206Y-12203150D01*
X12527206Y-12203150D02*
X12546253Y-12212674D01*
X12546253Y-12212674D02*
X12555777Y-12222198D01*
X12555777Y-12222198D02*
X12565301Y-12241246D01*
X12565301Y-12241246D02*
X12565301Y-12298388D01*
X12565301Y-12298388D02*
X12555777Y-12317436D01*
X12555777Y-12317436D02*
X12546253Y-12326960D01*
X12546253Y-12326960D02*
X12527206Y-12336484D01*
X12527206Y-12336484D02*
X12498634Y-12336484D01*
X12679587Y-12336484D02*
X12660539Y-12326960D01*
X12660539Y-12326960D02*
X12651015Y-12307912D01*
X12651015Y-12307912D02*
X12651015Y-12136484D01*
X12831968Y-12326960D02*
X12812920Y-12336484D01*
X12812920Y-12336484D02*
X12774825Y-12336484D01*
X12774825Y-12336484D02*
X12755777Y-12326960D01*
X12755777Y-12326960D02*
X12746253Y-12307912D01*
X12746253Y-12307912D02*
X12746253Y-12231722D01*
X12746253Y-12231722D02*
X12755777Y-12212674D01*
X12755777Y-12212674D02*
X12774825Y-12203150D01*
X12774825Y-12203150D02*
X12812920Y-12203150D01*
X12812920Y-12203150D02*
X12831968Y-12212674D01*
X12831968Y-12212674D02*
X12841491Y-12231722D01*
X12841491Y-12231722D02*
X12841491Y-12250769D01*
X12841491Y-12250769D02*
X12746253Y-12269817D01*
X12917682Y-12326960D02*
X12936730Y-12336484D01*
X12936730Y-12336484D02*
X12974825Y-12336484D01*
X12974825Y-12336484D02*
X12993872Y-12326960D01*
X12993872Y-12326960D02*
X13003396Y-12307912D01*
X13003396Y-12307912D02*
X13003396Y-12298388D01*
X13003396Y-12298388D02*
X12993872Y-12279341D01*
X12993872Y-12279341D02*
X12974825Y-12269817D01*
X12974825Y-12269817D02*
X12946253Y-12269817D01*
X12946253Y-12269817D02*
X12927206Y-12260293D01*
X12927206Y-12260293D02*
X12917682Y-12241246D01*
X12917682Y-12241246D02*
X12917682Y-12231722D01*
X12917682Y-12231722D02*
X12927206Y-12212674D01*
X12927206Y-12212674D02*
X12946253Y-12203150D01*
X12946253Y-12203150D02*
X12974825Y-12203150D01*
X12974825Y-12203150D02*
X12993872Y-12212674D01*
X13070063Y-12412674D02*
X13079587Y-12403150D01*
X13079587Y-12403150D02*
X13098634Y-12374579D01*
X13098634Y-12374579D02*
X13108158Y-12355531D01*
X13108158Y-12355531D02*
X13117682Y-12326960D01*
X13117682Y-12326960D02*
X13127206Y-12279341D01*
X13127206Y-12279341D02*
X13127206Y-12241246D01*
X13127206Y-12241246D02*
X13117682Y-12193627D01*
X13117682Y-12193627D02*
X13108158Y-12165055D01*
X13108158Y-12165055D02*
X13098634Y-12146008D01*
X13098634Y-12146008D02*
X13079587Y-12117436D01*
X13079587Y-12117436D02*
X13070063Y-12107912D01*
D10*
X8295000Y-12509000D02*
G75*
G03*
X8295000Y-12509000I-25000J0D01*
G01*
D11*
X8593872Y-12400484D02*
X8612920Y-12400484D01*
X8612920Y-12400484D02*
X8631967Y-12410008D01*
X8631967Y-12410008D02*
X8641491Y-12419531D01*
X8641491Y-12419531D02*
X8651015Y-12438579D01*
X8651015Y-12438579D02*
X8660539Y-12476674D01*
X8660539Y-12476674D02*
X8660539Y-12524293D01*
X8660539Y-12524293D02*
X8651015Y-12562388D01*
X8651015Y-12562388D02*
X8641491Y-12581436D01*
X8641491Y-12581436D02*
X8631967Y-12590960D01*
X8631967Y-12590960D02*
X8612920Y-12600484D01*
X8612920Y-12600484D02*
X8593872Y-12600484D01*
X8593872Y-12600484D02*
X8574824Y-12590960D01*
X8574824Y-12590960D02*
X8565301Y-12581436D01*
X8565301Y-12581436D02*
X8555777Y-12562388D01*
X8555777Y-12562388D02*
X8546253Y-12524293D01*
X8546253Y-12524293D02*
X8546253Y-12476674D01*
X8546253Y-12476674D02*
X8555777Y-12438579D01*
X8555777Y-12438579D02*
X8565301Y-12419531D01*
X8565301Y-12419531D02*
X8574824Y-12410008D01*
X8574824Y-12410008D02*
X8593872Y-12400484D01*
X8746253Y-12581436D02*
X8755777Y-12590960D01*
X8755777Y-12590960D02*
X8746253Y-12600484D01*
X8746253Y-12600484D02*
X8736729Y-12590960D01*
X8736729Y-12590960D02*
X8746253Y-12581436D01*
X8746253Y-12581436D02*
X8746253Y-12600484D01*
X8936729Y-12400484D02*
X8841491Y-12400484D01*
X8841491Y-12400484D02*
X8831967Y-12495722D01*
X8831967Y-12495722D02*
X8841491Y-12486198D01*
X8841491Y-12486198D02*
X8860539Y-12476674D01*
X8860539Y-12476674D02*
X8908158Y-12476674D01*
X8908158Y-12476674D02*
X8927205Y-12486198D01*
X8927205Y-12486198D02*
X8936729Y-12495722D01*
X8936729Y-12495722D02*
X8946253Y-12514769D01*
X8946253Y-12514769D02*
X8946253Y-12562388D01*
X8946253Y-12562388D02*
X8936729Y-12581436D01*
X8936729Y-12581436D02*
X8927205Y-12590960D01*
X8927205Y-12590960D02*
X8908158Y-12600484D01*
X8908158Y-12600484D02*
X8860539Y-12600484D01*
X8860539Y-12600484D02*
X8841491Y-12590960D01*
X8841491Y-12590960D02*
X8831967Y-12581436D01*
X9070063Y-12400484D02*
X9089110Y-12400484D01*
X9089110Y-12400484D02*
X9108158Y-12410008D01*
X9108158Y-12410008D02*
X9117682Y-12419531D01*
X9117682Y-12419531D02*
X9127205Y-12438579D01*
X9127205Y-12438579D02*
X9136729Y-12476674D01*
X9136729Y-12476674D02*
X9136729Y-12524293D01*
X9136729Y-12524293D02*
X9127205Y-12562388D01*
X9127205Y-12562388D02*
X9117682Y-12581436D01*
X9117682Y-12581436D02*
X9108158Y-12590960D01*
X9108158Y-12590960D02*
X9089110Y-12600484D01*
X9089110Y-12600484D02*
X9070063Y-12600484D01*
X9070063Y-12600484D02*
X9051015Y-12590960D01*
X9051015Y-12590960D02*
X9041491Y-12581436D01*
X9041491Y-12581436D02*
X9031967Y-12562388D01*
X9031967Y-12562388D02*
X9022444Y-12524293D01*
X9022444Y-12524293D02*
X9022444Y-12476674D01*
X9022444Y-12476674D02*
X9031967Y-12438579D01*
X9031967Y-12438579D02*
X9041491Y-12419531D01*
X9041491Y-12419531D02*
X9051015Y-12410008D01*
X9051015Y-12410008D02*
X9070063Y-12400484D01*
X9260539Y-12400484D02*
X9279586Y-12400484D01*
X9279586Y-12400484D02*
X9298634Y-12410008D01*
X9298634Y-12410008D02*
X9308158Y-12419531D01*
X9308158Y-12419531D02*
X9317682Y-12438579D01*
X9317682Y-12438579D02*
X9327205Y-12476674D01*
X9327205Y-12476674D02*
X9327205Y-12524293D01*
X9327205Y-12524293D02*
X9317682Y-12562388D01*
X9317682Y-12562388D02*
X9308158Y-12581436D01*
X9308158Y-12581436D02*
X9298634Y-12590960D01*
X9298634Y-12590960D02*
X9279586Y-12600484D01*
X9279586Y-12600484D02*
X9260539Y-12600484D01*
X9260539Y-12600484D02*
X9241491Y-12590960D01*
X9241491Y-12590960D02*
X9231967Y-12581436D01*
X9231967Y-12581436D02*
X9222444Y-12562388D01*
X9222444Y-12562388D02*
X9212920Y-12524293D01*
X9212920Y-12524293D02*
X9212920Y-12476674D01*
X9212920Y-12476674D02*
X9222444Y-12438579D01*
X9222444Y-12438579D02*
X9231967Y-12419531D01*
X9231967Y-12419531D02*
X9241491Y-12410008D01*
X9241491Y-12410008D02*
X9260539Y-12400484D01*
X9412920Y-12600484D02*
X9412920Y-12467150D01*
X9412920Y-12486198D02*
X9422444Y-12476674D01*
X9422444Y-12476674D02*
X9441491Y-12467150D01*
X9441491Y-12467150D02*
X9470063Y-12467150D01*
X9470063Y-12467150D02*
X9489110Y-12476674D01*
X9489110Y-12476674D02*
X9498634Y-12495722D01*
X9498634Y-12495722D02*
X9498634Y-12600484D01*
X9498634Y-12495722D02*
X9508158Y-12476674D01*
X9508158Y-12476674D02*
X9527205Y-12467150D01*
X9527205Y-12467150D02*
X9555777Y-12467150D01*
X9555777Y-12467150D02*
X9574825Y-12476674D01*
X9574825Y-12476674D02*
X9584348Y-12495722D01*
X9584348Y-12495722D02*
X9584348Y-12600484D01*
X9679586Y-12600484D02*
X9679586Y-12467150D01*
X9679586Y-12486198D02*
X9689110Y-12476674D01*
X9689110Y-12476674D02*
X9708158Y-12467150D01*
X9708158Y-12467150D02*
X9736729Y-12467150D01*
X9736729Y-12467150D02*
X9755777Y-12476674D01*
X9755777Y-12476674D02*
X9765301Y-12495722D01*
X9765301Y-12495722D02*
X9765301Y-12600484D01*
X9765301Y-12495722D02*
X9774825Y-12476674D01*
X9774825Y-12476674D02*
X9793872Y-12467150D01*
X9793872Y-12467150D02*
X9822444Y-12467150D01*
X9822444Y-12467150D02*
X9841491Y-12476674D01*
X9841491Y-12476674D02*
X9851015Y-12495722D01*
X9851015Y-12495722D02*
X9851015Y-12600484D01*
X10241491Y-12390960D02*
X10070063Y-12648103D01*
X10498634Y-12400484D02*
X10517682Y-12400484D01*
X10517682Y-12400484D02*
X10536729Y-12410008D01*
X10536729Y-12410008D02*
X10546253Y-12419531D01*
X10546253Y-12419531D02*
X10555777Y-12438579D01*
X10555777Y-12438579D02*
X10565301Y-12476674D01*
X10565301Y-12476674D02*
X10565301Y-12524293D01*
X10565301Y-12524293D02*
X10555777Y-12562388D01*
X10555777Y-12562388D02*
X10546253Y-12581436D01*
X10546253Y-12581436D02*
X10536729Y-12590960D01*
X10536729Y-12590960D02*
X10517682Y-12600484D01*
X10517682Y-12600484D02*
X10498634Y-12600484D01*
X10498634Y-12600484D02*
X10479587Y-12590960D01*
X10479587Y-12590960D02*
X10470063Y-12581436D01*
X10470063Y-12581436D02*
X10460539Y-12562388D01*
X10460539Y-12562388D02*
X10451015Y-12524293D01*
X10451015Y-12524293D02*
X10451015Y-12476674D01*
X10451015Y-12476674D02*
X10460539Y-12438579D01*
X10460539Y-12438579D02*
X10470063Y-12419531D01*
X10470063Y-12419531D02*
X10479587Y-12410008D01*
X10479587Y-12410008D02*
X10498634Y-12400484D01*
X10651015Y-12581436D02*
X10660539Y-12590960D01*
X10660539Y-12590960D02*
X10651015Y-12600484D01*
X10651015Y-12600484D02*
X10641491Y-12590960D01*
X10641491Y-12590960D02*
X10651015Y-12581436D01*
X10651015Y-12581436D02*
X10651015Y-12600484D01*
X10784348Y-12400484D02*
X10803396Y-12400484D01*
X10803396Y-12400484D02*
X10822444Y-12410008D01*
X10822444Y-12410008D02*
X10831968Y-12419531D01*
X10831968Y-12419531D02*
X10841491Y-12438579D01*
X10841491Y-12438579D02*
X10851015Y-12476674D01*
X10851015Y-12476674D02*
X10851015Y-12524293D01*
X10851015Y-12524293D02*
X10841491Y-12562388D01*
X10841491Y-12562388D02*
X10831968Y-12581436D01*
X10831968Y-12581436D02*
X10822444Y-12590960D01*
X10822444Y-12590960D02*
X10803396Y-12600484D01*
X10803396Y-12600484D02*
X10784348Y-12600484D01*
X10784348Y-12600484D02*
X10765301Y-12590960D01*
X10765301Y-12590960D02*
X10755777Y-12581436D01*
X10755777Y-12581436D02*
X10746253Y-12562388D01*
X10746253Y-12562388D02*
X10736729Y-12524293D01*
X10736729Y-12524293D02*
X10736729Y-12476674D01*
X10736729Y-12476674D02*
X10746253Y-12438579D01*
X10746253Y-12438579D02*
X10755777Y-12419531D01*
X10755777Y-12419531D02*
X10765301Y-12410008D01*
X10765301Y-12410008D02*
X10784348Y-12400484D01*
X11041491Y-12600484D02*
X10927206Y-12600484D01*
X10984348Y-12600484D02*
X10984348Y-12400484D01*
X10984348Y-12400484D02*
X10965301Y-12429055D01*
X10965301Y-12429055D02*
X10946253Y-12448103D01*
X10946253Y-12448103D02*
X10927206Y-12457627D01*
X11136729Y-12600484D02*
X11174825Y-12600484D01*
X11174825Y-12600484D02*
X11193872Y-12590960D01*
X11193872Y-12590960D02*
X11203396Y-12581436D01*
X11203396Y-12581436D02*
X11222444Y-12552865D01*
X11222444Y-12552865D02*
X11231967Y-12514769D01*
X11231967Y-12514769D02*
X11231967Y-12438579D01*
X11231967Y-12438579D02*
X11222444Y-12419531D01*
X11222444Y-12419531D02*
X11212920Y-12410008D01*
X11212920Y-12410008D02*
X11193872Y-12400484D01*
X11193872Y-12400484D02*
X11155777Y-12400484D01*
X11155777Y-12400484D02*
X11136729Y-12410008D01*
X11136729Y-12410008D02*
X11127206Y-12419531D01*
X11127206Y-12419531D02*
X11117682Y-12438579D01*
X11117682Y-12438579D02*
X11117682Y-12486198D01*
X11117682Y-12486198D02*
X11127206Y-12505246D01*
X11127206Y-12505246D02*
X11136729Y-12514769D01*
X11136729Y-12514769D02*
X11155777Y-12524293D01*
X11155777Y-12524293D02*
X11193872Y-12524293D01*
X11193872Y-12524293D02*
X11212920Y-12514769D01*
X11212920Y-12514769D02*
X11222444Y-12505246D01*
X11222444Y-12505246D02*
X11231967Y-12486198D01*
X11298634Y-12400484D02*
X11431967Y-12400484D01*
X11431967Y-12400484D02*
X11346253Y-12600484D01*
X11498634Y-12400484D02*
X11498634Y-12438579D01*
X11574825Y-12400484D02*
X11574825Y-12438579D01*
X11870063Y-12676674D02*
X11860539Y-12667150D01*
X11860539Y-12667150D02*
X11841491Y-12638579D01*
X11841491Y-12638579D02*
X11831968Y-12619531D01*
X11831968Y-12619531D02*
X11822444Y-12590960D01*
X11822444Y-12590960D02*
X11812920Y-12543341D01*
X11812920Y-12543341D02*
X11812920Y-12505246D01*
X11812920Y-12505246D02*
X11822444Y-12457627D01*
X11822444Y-12457627D02*
X11831968Y-12429055D01*
X11831968Y-12429055D02*
X11841491Y-12410008D01*
X11841491Y-12410008D02*
X11860539Y-12381436D01*
X11860539Y-12381436D02*
X11870063Y-12371912D01*
X11927206Y-12400484D02*
X12051015Y-12400484D01*
X12051015Y-12400484D02*
X11984348Y-12476674D01*
X11984348Y-12476674D02*
X12012920Y-12476674D01*
X12012920Y-12476674D02*
X12031968Y-12486198D01*
X12031968Y-12486198D02*
X12041491Y-12495722D01*
X12041491Y-12495722D02*
X12051015Y-12514769D01*
X12051015Y-12514769D02*
X12051015Y-12562388D01*
X12051015Y-12562388D02*
X12041491Y-12581436D01*
X12041491Y-12581436D02*
X12031968Y-12590960D01*
X12031968Y-12590960D02*
X12012920Y-12600484D01*
X12012920Y-12600484D02*
X11955777Y-12600484D01*
X11955777Y-12600484D02*
X11936729Y-12590960D01*
X11936729Y-12590960D02*
X11927206Y-12581436D01*
X12127206Y-12419531D02*
X12136729Y-12410008D01*
X12136729Y-12410008D02*
X12155777Y-12400484D01*
X12155777Y-12400484D02*
X12203396Y-12400484D01*
X12203396Y-12400484D02*
X12222444Y-12410008D01*
X12222444Y-12410008D02*
X12231968Y-12419531D01*
X12231968Y-12419531D02*
X12241491Y-12438579D01*
X12241491Y-12438579D02*
X12241491Y-12457627D01*
X12241491Y-12457627D02*
X12231968Y-12486198D01*
X12231968Y-12486198D02*
X12117682Y-12600484D01*
X12117682Y-12600484D02*
X12241491Y-12600484D01*
X12479587Y-12600484D02*
X12479587Y-12400484D01*
X12565301Y-12600484D02*
X12565301Y-12495722D01*
X12565301Y-12495722D02*
X12555777Y-12476674D01*
X12555777Y-12476674D02*
X12536730Y-12467150D01*
X12536730Y-12467150D02*
X12508158Y-12467150D01*
X12508158Y-12467150D02*
X12489110Y-12476674D01*
X12489110Y-12476674D02*
X12479587Y-12486198D01*
X12689110Y-12600484D02*
X12670063Y-12590960D01*
X12670063Y-12590960D02*
X12660539Y-12581436D01*
X12660539Y-12581436D02*
X12651015Y-12562388D01*
X12651015Y-12562388D02*
X12651015Y-12505246D01*
X12651015Y-12505246D02*
X12660539Y-12486198D01*
X12660539Y-12486198D02*
X12670063Y-12476674D01*
X12670063Y-12476674D02*
X12689110Y-12467150D01*
X12689110Y-12467150D02*
X12717682Y-12467150D01*
X12717682Y-12467150D02*
X12736730Y-12476674D01*
X12736730Y-12476674D02*
X12746253Y-12486198D01*
X12746253Y-12486198D02*
X12755777Y-12505246D01*
X12755777Y-12505246D02*
X12755777Y-12562388D01*
X12755777Y-12562388D02*
X12746253Y-12581436D01*
X12746253Y-12581436D02*
X12736730Y-12590960D01*
X12736730Y-12590960D02*
X12717682Y-12600484D01*
X12717682Y-12600484D02*
X12689110Y-12600484D01*
X12870063Y-12600484D02*
X12851015Y-12590960D01*
X12851015Y-12590960D02*
X12841491Y-12571912D01*
X12841491Y-12571912D02*
X12841491Y-12400484D01*
X13022444Y-12590960D02*
X13003396Y-12600484D01*
X13003396Y-12600484D02*
X12965301Y-12600484D01*
X12965301Y-12600484D02*
X12946253Y-12590960D01*
X12946253Y-12590960D02*
X12936730Y-12571912D01*
X12936730Y-12571912D02*
X12936730Y-12495722D01*
X12936730Y-12495722D02*
X12946253Y-12476674D01*
X12946253Y-12476674D02*
X12965301Y-12467150D01*
X12965301Y-12467150D02*
X13003396Y-12467150D01*
X13003396Y-12467150D02*
X13022444Y-12476674D01*
X13022444Y-12476674D02*
X13031968Y-12495722D01*
X13031968Y-12495722D02*
X13031968Y-12514769D01*
X13031968Y-12514769D02*
X12936730Y-12533817D01*
X13108158Y-12590960D02*
X13127206Y-12600484D01*
X13127206Y-12600484D02*
X13165301Y-12600484D01*
X13165301Y-12600484D02*
X13184349Y-12590960D01*
X13184349Y-12590960D02*
X13193872Y-12571912D01*
X13193872Y-12571912D02*
X13193872Y-12562388D01*
X13193872Y-12562388D02*
X13184349Y-12543341D01*
X13184349Y-12543341D02*
X13165301Y-12533817D01*
X13165301Y-12533817D02*
X13136730Y-12533817D01*
X13136730Y-12533817D02*
X13117682Y-12524293D01*
X13117682Y-12524293D02*
X13108158Y-12505246D01*
X13108158Y-12505246D02*
X13108158Y-12495722D01*
X13108158Y-12495722D02*
X13117682Y-12476674D01*
X13117682Y-12476674D02*
X13136730Y-12467150D01*
X13136730Y-12467150D02*
X13165301Y-12467150D01*
X13165301Y-12467150D02*
X13184349Y-12476674D01*
X13260539Y-12676674D02*
X13270063Y-12667150D01*
X13270063Y-12667150D02*
X13289111Y-12638579D01*
X13289111Y-12638579D02*
X13298634Y-12619531D01*
X13298634Y-12619531D02*
X13308158Y-12590960D01*
X13308158Y-12590960D02*
X13317682Y-12543341D01*
X13317682Y-12543341D02*
X13317682Y-12505246D01*
X13317682Y-12505246D02*
X13308158Y-12457627D01*
X13308158Y-12457627D02*
X13298634Y-12429055D01*
X13298634Y-12429055D02*
X13289111Y-12410008D01*
X13289111Y-12410008D02*
X13270063Y-12381436D01*
X13270063Y-12381436D02*
X13260539Y-12371912D01*
D10*
X8255000Y-12733000D02*
X8255000Y-12813000D01*
X8215000Y-12773000D02*
X8295000Y-12773000D01*
D11*
X8593872Y-12664484D02*
X8612920Y-12664484D01*
X8612920Y-12664484D02*
X8631967Y-12674008D01*
X8631967Y-12674008D02*
X8641491Y-12683531D01*
X8641491Y-12683531D02*
X8651015Y-12702579D01*
X8651015Y-12702579D02*
X8660539Y-12740674D01*
X8660539Y-12740674D02*
X8660539Y-12788293D01*
X8660539Y-12788293D02*
X8651015Y-12826388D01*
X8651015Y-12826388D02*
X8641491Y-12845436D01*
X8641491Y-12845436D02*
X8631967Y-12854960D01*
X8631967Y-12854960D02*
X8612920Y-12864484D01*
X8612920Y-12864484D02*
X8593872Y-12864484D01*
X8593872Y-12864484D02*
X8574824Y-12854960D01*
X8574824Y-12854960D02*
X8565301Y-12845436D01*
X8565301Y-12845436D02*
X8555777Y-12826388D01*
X8555777Y-12826388D02*
X8546253Y-12788293D01*
X8546253Y-12788293D02*
X8546253Y-12740674D01*
X8546253Y-12740674D02*
X8555777Y-12702579D01*
X8555777Y-12702579D02*
X8565301Y-12683531D01*
X8565301Y-12683531D02*
X8574824Y-12674008D01*
X8574824Y-12674008D02*
X8593872Y-12664484D01*
X8746253Y-12845436D02*
X8755777Y-12854960D01*
X8755777Y-12854960D02*
X8746253Y-12864484D01*
X8746253Y-12864484D02*
X8736729Y-12854960D01*
X8736729Y-12854960D02*
X8746253Y-12845436D01*
X8746253Y-12845436D02*
X8746253Y-12864484D01*
X8870063Y-12750198D02*
X8851015Y-12740674D01*
X8851015Y-12740674D02*
X8841491Y-12731150D01*
X8841491Y-12731150D02*
X8831967Y-12712103D01*
X8831967Y-12712103D02*
X8831967Y-12702579D01*
X8831967Y-12702579D02*
X8841491Y-12683531D01*
X8841491Y-12683531D02*
X8851015Y-12674008D01*
X8851015Y-12674008D02*
X8870063Y-12664484D01*
X8870063Y-12664484D02*
X8908158Y-12664484D01*
X8908158Y-12664484D02*
X8927205Y-12674008D01*
X8927205Y-12674008D02*
X8936729Y-12683531D01*
X8936729Y-12683531D02*
X8946253Y-12702579D01*
X8946253Y-12702579D02*
X8946253Y-12712103D01*
X8946253Y-12712103D02*
X8936729Y-12731150D01*
X8936729Y-12731150D02*
X8927205Y-12740674D01*
X8927205Y-12740674D02*
X8908158Y-12750198D01*
X8908158Y-12750198D02*
X8870063Y-12750198D01*
X8870063Y-12750198D02*
X8851015Y-12759722D01*
X8851015Y-12759722D02*
X8841491Y-12769246D01*
X8841491Y-12769246D02*
X8831967Y-12788293D01*
X8831967Y-12788293D02*
X8831967Y-12826388D01*
X8831967Y-12826388D02*
X8841491Y-12845436D01*
X8841491Y-12845436D02*
X8851015Y-12854960D01*
X8851015Y-12854960D02*
X8870063Y-12864484D01*
X8870063Y-12864484D02*
X8908158Y-12864484D01*
X8908158Y-12864484D02*
X8927205Y-12854960D01*
X8927205Y-12854960D02*
X8936729Y-12845436D01*
X8936729Y-12845436D02*
X8946253Y-12826388D01*
X8946253Y-12826388D02*
X8946253Y-12788293D01*
X8946253Y-12788293D02*
X8936729Y-12769246D01*
X8936729Y-12769246D02*
X8927205Y-12759722D01*
X8927205Y-12759722D02*
X8908158Y-12750198D01*
X9070063Y-12664484D02*
X9089110Y-12664484D01*
X9089110Y-12664484D02*
X9108158Y-12674008D01*
X9108158Y-12674008D02*
X9117682Y-12683531D01*
X9117682Y-12683531D02*
X9127205Y-12702579D01*
X9127205Y-12702579D02*
X9136729Y-12740674D01*
X9136729Y-12740674D02*
X9136729Y-12788293D01*
X9136729Y-12788293D02*
X9127205Y-12826388D01*
X9127205Y-12826388D02*
X9117682Y-12845436D01*
X9117682Y-12845436D02*
X9108158Y-12854960D01*
X9108158Y-12854960D02*
X9089110Y-12864484D01*
X9089110Y-12864484D02*
X9070063Y-12864484D01*
X9070063Y-12864484D02*
X9051015Y-12854960D01*
X9051015Y-12854960D02*
X9041491Y-12845436D01*
X9041491Y-12845436D02*
X9031967Y-12826388D01*
X9031967Y-12826388D02*
X9022444Y-12788293D01*
X9022444Y-12788293D02*
X9022444Y-12740674D01*
X9022444Y-12740674D02*
X9031967Y-12702579D01*
X9031967Y-12702579D02*
X9041491Y-12683531D01*
X9041491Y-12683531D02*
X9051015Y-12674008D01*
X9051015Y-12674008D02*
X9070063Y-12664484D01*
X9260539Y-12664484D02*
X9279586Y-12664484D01*
X9279586Y-12664484D02*
X9298634Y-12674008D01*
X9298634Y-12674008D02*
X9308158Y-12683531D01*
X9308158Y-12683531D02*
X9317682Y-12702579D01*
X9317682Y-12702579D02*
X9327205Y-12740674D01*
X9327205Y-12740674D02*
X9327205Y-12788293D01*
X9327205Y-12788293D02*
X9317682Y-12826388D01*
X9317682Y-12826388D02*
X9308158Y-12845436D01*
X9308158Y-12845436D02*
X9298634Y-12854960D01*
X9298634Y-12854960D02*
X9279586Y-12864484D01*
X9279586Y-12864484D02*
X9260539Y-12864484D01*
X9260539Y-12864484D02*
X9241491Y-12854960D01*
X9241491Y-12854960D02*
X9231967Y-12845436D01*
X9231967Y-12845436D02*
X9222444Y-12826388D01*
X9222444Y-12826388D02*
X9212920Y-12788293D01*
X9212920Y-12788293D02*
X9212920Y-12740674D01*
X9212920Y-12740674D02*
X9222444Y-12702579D01*
X9222444Y-12702579D02*
X9231967Y-12683531D01*
X9231967Y-12683531D02*
X9241491Y-12674008D01*
X9241491Y-12674008D02*
X9260539Y-12664484D01*
X9412920Y-12864484D02*
X9412920Y-12731150D01*
X9412920Y-12750198D02*
X9422444Y-12740674D01*
X9422444Y-12740674D02*
X9441491Y-12731150D01*
X9441491Y-12731150D02*
X9470063Y-12731150D01*
X9470063Y-12731150D02*
X9489110Y-12740674D01*
X9489110Y-12740674D02*
X9498634Y-12759722D01*
X9498634Y-12759722D02*
X9498634Y-12864484D01*
X9498634Y-12759722D02*
X9508158Y-12740674D01*
X9508158Y-12740674D02*
X9527205Y-12731150D01*
X9527205Y-12731150D02*
X9555777Y-12731150D01*
X9555777Y-12731150D02*
X9574825Y-12740674D01*
X9574825Y-12740674D02*
X9584348Y-12759722D01*
X9584348Y-12759722D02*
X9584348Y-12864484D01*
X9679586Y-12864484D02*
X9679586Y-12731150D01*
X9679586Y-12750198D02*
X9689110Y-12740674D01*
X9689110Y-12740674D02*
X9708158Y-12731150D01*
X9708158Y-12731150D02*
X9736729Y-12731150D01*
X9736729Y-12731150D02*
X9755777Y-12740674D01*
X9755777Y-12740674D02*
X9765301Y-12759722D01*
X9765301Y-12759722D02*
X9765301Y-12864484D01*
X9765301Y-12759722D02*
X9774825Y-12740674D01*
X9774825Y-12740674D02*
X9793872Y-12731150D01*
X9793872Y-12731150D02*
X9822444Y-12731150D01*
X9822444Y-12731150D02*
X9841491Y-12740674D01*
X9841491Y-12740674D02*
X9851015Y-12759722D01*
X9851015Y-12759722D02*
X9851015Y-12864484D01*
X10241491Y-12654960D02*
X10070063Y-12912103D01*
X10498634Y-12664484D02*
X10517682Y-12664484D01*
X10517682Y-12664484D02*
X10536729Y-12674008D01*
X10536729Y-12674008D02*
X10546253Y-12683531D01*
X10546253Y-12683531D02*
X10555777Y-12702579D01*
X10555777Y-12702579D02*
X10565301Y-12740674D01*
X10565301Y-12740674D02*
X10565301Y-12788293D01*
X10565301Y-12788293D02*
X10555777Y-12826388D01*
X10555777Y-12826388D02*
X10546253Y-12845436D01*
X10546253Y-12845436D02*
X10536729Y-12854960D01*
X10536729Y-12854960D02*
X10517682Y-12864484D01*
X10517682Y-12864484D02*
X10498634Y-12864484D01*
X10498634Y-12864484D02*
X10479587Y-12854960D01*
X10479587Y-12854960D02*
X10470063Y-12845436D01*
X10470063Y-12845436D02*
X10460539Y-12826388D01*
X10460539Y-12826388D02*
X10451015Y-12788293D01*
X10451015Y-12788293D02*
X10451015Y-12740674D01*
X10451015Y-12740674D02*
X10460539Y-12702579D01*
X10460539Y-12702579D02*
X10470063Y-12683531D01*
X10470063Y-12683531D02*
X10479587Y-12674008D01*
X10479587Y-12674008D02*
X10498634Y-12664484D01*
X10651015Y-12845436D02*
X10660539Y-12854960D01*
X10660539Y-12854960D02*
X10651015Y-12864484D01*
X10651015Y-12864484D02*
X10641491Y-12854960D01*
X10641491Y-12854960D02*
X10651015Y-12845436D01*
X10651015Y-12845436D02*
X10651015Y-12864484D01*
X10784348Y-12664484D02*
X10803396Y-12664484D01*
X10803396Y-12664484D02*
X10822444Y-12674008D01*
X10822444Y-12674008D02*
X10831968Y-12683531D01*
X10831968Y-12683531D02*
X10841491Y-12702579D01*
X10841491Y-12702579D02*
X10851015Y-12740674D01*
X10851015Y-12740674D02*
X10851015Y-12788293D01*
X10851015Y-12788293D02*
X10841491Y-12826388D01*
X10841491Y-12826388D02*
X10831968Y-12845436D01*
X10831968Y-12845436D02*
X10822444Y-12854960D01*
X10822444Y-12854960D02*
X10803396Y-12864484D01*
X10803396Y-12864484D02*
X10784348Y-12864484D01*
X10784348Y-12864484D02*
X10765301Y-12854960D01*
X10765301Y-12854960D02*
X10755777Y-12845436D01*
X10755777Y-12845436D02*
X10746253Y-12826388D01*
X10746253Y-12826388D02*
X10736729Y-12788293D01*
X10736729Y-12788293D02*
X10736729Y-12740674D01*
X10736729Y-12740674D02*
X10746253Y-12702579D01*
X10746253Y-12702579D02*
X10755777Y-12683531D01*
X10755777Y-12683531D02*
X10765301Y-12674008D01*
X10765301Y-12674008D02*
X10784348Y-12664484D01*
X10917682Y-12664484D02*
X11041491Y-12664484D01*
X11041491Y-12664484D02*
X10974825Y-12740674D01*
X10974825Y-12740674D02*
X11003396Y-12740674D01*
X11003396Y-12740674D02*
X11022444Y-12750198D01*
X11022444Y-12750198D02*
X11031968Y-12759722D01*
X11031968Y-12759722D02*
X11041491Y-12778769D01*
X11041491Y-12778769D02*
X11041491Y-12826388D01*
X11041491Y-12826388D02*
X11031968Y-12845436D01*
X11031968Y-12845436D02*
X11022444Y-12854960D01*
X11022444Y-12854960D02*
X11003396Y-12864484D01*
X11003396Y-12864484D02*
X10946253Y-12864484D01*
X10946253Y-12864484D02*
X10927206Y-12854960D01*
X10927206Y-12854960D02*
X10917682Y-12845436D01*
X11231967Y-12864484D02*
X11117682Y-12864484D01*
X11174825Y-12864484D02*
X11174825Y-12664484D01*
X11174825Y-12664484D02*
X11155777Y-12693055D01*
X11155777Y-12693055D02*
X11136729Y-12712103D01*
X11136729Y-12712103D02*
X11117682Y-12721627D01*
X11412920Y-12664484D02*
X11317682Y-12664484D01*
X11317682Y-12664484D02*
X11308158Y-12759722D01*
X11308158Y-12759722D02*
X11317682Y-12750198D01*
X11317682Y-12750198D02*
X11336729Y-12740674D01*
X11336729Y-12740674D02*
X11384348Y-12740674D01*
X11384348Y-12740674D02*
X11403396Y-12750198D01*
X11403396Y-12750198D02*
X11412920Y-12759722D01*
X11412920Y-12759722D02*
X11422444Y-12778769D01*
X11422444Y-12778769D02*
X11422444Y-12826388D01*
X11422444Y-12826388D02*
X11412920Y-12845436D01*
X11412920Y-12845436D02*
X11403396Y-12854960D01*
X11403396Y-12854960D02*
X11384348Y-12864484D01*
X11384348Y-12864484D02*
X11336729Y-12864484D01*
X11336729Y-12864484D02*
X11317682Y-12854960D01*
X11317682Y-12854960D02*
X11308158Y-12845436D01*
X11498634Y-12664484D02*
X11498634Y-12702579D01*
X11574825Y-12664484D02*
X11574825Y-12702579D01*
X11870063Y-12940674D02*
X11860539Y-12931150D01*
X11860539Y-12931150D02*
X11841491Y-12902579D01*
X11841491Y-12902579D02*
X11831968Y-12883531D01*
X11831968Y-12883531D02*
X11822444Y-12854960D01*
X11822444Y-12854960D02*
X11812920Y-12807341D01*
X11812920Y-12807341D02*
X11812920Y-12769246D01*
X11812920Y-12769246D02*
X11822444Y-12721627D01*
X11822444Y-12721627D02*
X11831968Y-12693055D01*
X11831968Y-12693055D02*
X11841491Y-12674008D01*
X11841491Y-12674008D02*
X11860539Y-12645436D01*
X11860539Y-12645436D02*
X11870063Y-12635912D01*
X12051015Y-12864484D02*
X11936729Y-12864484D01*
X11993872Y-12864484D02*
X11993872Y-12664484D01*
X11993872Y-12664484D02*
X11974825Y-12693055D01*
X11974825Y-12693055D02*
X11955777Y-12712103D01*
X11955777Y-12712103D02*
X11936729Y-12721627D01*
X12222444Y-12731150D02*
X12222444Y-12864484D01*
X12174825Y-12654960D02*
X12127206Y-12797817D01*
X12127206Y-12797817D02*
X12251015Y-12797817D01*
X12479587Y-12864484D02*
X12479587Y-12664484D01*
X12565301Y-12864484D02*
X12565301Y-12759722D01*
X12565301Y-12759722D02*
X12555777Y-12740674D01*
X12555777Y-12740674D02*
X12536730Y-12731150D01*
X12536730Y-12731150D02*
X12508158Y-12731150D01*
X12508158Y-12731150D02*
X12489110Y-12740674D01*
X12489110Y-12740674D02*
X12479587Y-12750198D01*
X12689110Y-12864484D02*
X12670063Y-12854960D01*
X12670063Y-12854960D02*
X12660539Y-12845436D01*
X12660539Y-12845436D02*
X12651015Y-12826388D01*
X12651015Y-12826388D02*
X12651015Y-12769246D01*
X12651015Y-12769246D02*
X12660539Y-12750198D01*
X12660539Y-12750198D02*
X12670063Y-12740674D01*
X12670063Y-12740674D02*
X12689110Y-12731150D01*
X12689110Y-12731150D02*
X12717682Y-12731150D01*
X12717682Y-12731150D02*
X12736730Y-12740674D01*
X12736730Y-12740674D02*
X12746253Y-12750198D01*
X12746253Y-12750198D02*
X12755777Y-12769246D01*
X12755777Y-12769246D02*
X12755777Y-12826388D01*
X12755777Y-12826388D02*
X12746253Y-12845436D01*
X12746253Y-12845436D02*
X12736730Y-12854960D01*
X12736730Y-12854960D02*
X12717682Y-12864484D01*
X12717682Y-12864484D02*
X12689110Y-12864484D01*
X12870063Y-12864484D02*
X12851015Y-12854960D01*
X12851015Y-12854960D02*
X12841491Y-12835912D01*
X12841491Y-12835912D02*
X12841491Y-12664484D01*
X13022444Y-12854960D02*
X13003396Y-12864484D01*
X13003396Y-12864484D02*
X12965301Y-12864484D01*
X12965301Y-12864484D02*
X12946253Y-12854960D01*
X12946253Y-12854960D02*
X12936730Y-12835912D01*
X12936730Y-12835912D02*
X12936730Y-12759722D01*
X12936730Y-12759722D02*
X12946253Y-12740674D01*
X12946253Y-12740674D02*
X12965301Y-12731150D01*
X12965301Y-12731150D02*
X13003396Y-12731150D01*
X13003396Y-12731150D02*
X13022444Y-12740674D01*
X13022444Y-12740674D02*
X13031968Y-12759722D01*
X13031968Y-12759722D02*
X13031968Y-12778769D01*
X13031968Y-12778769D02*
X12936730Y-12797817D01*
X13108158Y-12854960D02*
X13127206Y-12864484D01*
X13127206Y-12864484D02*
X13165301Y-12864484D01*
X13165301Y-12864484D02*
X13184349Y-12854960D01*
X13184349Y-12854960D02*
X13193872Y-12835912D01*
X13193872Y-12835912D02*
X13193872Y-12826388D01*
X13193872Y-12826388D02*
X13184349Y-12807341D01*
X13184349Y-12807341D02*
X13165301Y-12797817D01*
X13165301Y-12797817D02*
X13136730Y-12797817D01*
X13136730Y-12797817D02*
X13117682Y-12788293D01*
X13117682Y-12788293D02*
X13108158Y-12769246D01*
X13108158Y-12769246D02*
X13108158Y-12759722D01*
X13108158Y-12759722D02*
X13117682Y-12740674D01*
X13117682Y-12740674D02*
X13136730Y-12731150D01*
X13136730Y-12731150D02*
X13165301Y-12731150D01*
X13165301Y-12731150D02*
X13184349Y-12740674D01*
X13260539Y-12940674D02*
X13270063Y-12931150D01*
X13270063Y-12931150D02*
X13289111Y-12902579D01*
X13289111Y-12902579D02*
X13298634Y-12883531D01*
X13298634Y-12883531D02*
X13308158Y-12854960D01*
X13308158Y-12854960D02*
X13317682Y-12807341D01*
X13317682Y-12807341D02*
X13317682Y-12769246D01*
X13317682Y-12769246D02*
X13308158Y-12721627D01*
X13308158Y-12721627D02*
X13298634Y-12693055D01*
X13298634Y-12693055D02*
X13289111Y-12674008D01*
X13289111Y-12674008D02*
X13270063Y-12645436D01*
X13270063Y-12645436D02*
X13260539Y-12635912D01*
D12*
X8280121Y-13072921D02*
X8280121Y-13001079D01*
X8208279Y-13001079D01*
X8208279Y-13072921D01*
X8280121Y-13072921D01*
D11*
X8660539Y-13128484D02*
X8546253Y-13128484D01*
X8603396Y-13128484D02*
X8603396Y-12928484D01*
X8603396Y-12928484D02*
X8584348Y-12957055D01*
X8584348Y-12957055D02*
X8565301Y-12976103D01*
X8565301Y-12976103D02*
X8546253Y-12985627D01*
X8746253Y-13109436D02*
X8755777Y-13118960D01*
X8755777Y-13118960D02*
X8746253Y-13128484D01*
X8746253Y-13128484D02*
X8736729Y-13118960D01*
X8736729Y-13118960D02*
X8746253Y-13109436D01*
X8746253Y-13109436D02*
X8746253Y-13128484D01*
X8879586Y-12928484D02*
X8898634Y-12928484D01*
X8898634Y-12928484D02*
X8917682Y-12938008D01*
X8917682Y-12938008D02*
X8927205Y-12947531D01*
X8927205Y-12947531D02*
X8936729Y-12966579D01*
X8936729Y-12966579D02*
X8946253Y-13004674D01*
X8946253Y-13004674D02*
X8946253Y-13052293D01*
X8946253Y-13052293D02*
X8936729Y-13090388D01*
X8936729Y-13090388D02*
X8927205Y-13109436D01*
X8927205Y-13109436D02*
X8917682Y-13118960D01*
X8917682Y-13118960D02*
X8898634Y-13128484D01*
X8898634Y-13128484D02*
X8879586Y-13128484D01*
X8879586Y-13128484D02*
X8860539Y-13118960D01*
X8860539Y-13118960D02*
X8851015Y-13109436D01*
X8851015Y-13109436D02*
X8841491Y-13090388D01*
X8841491Y-13090388D02*
X8831967Y-13052293D01*
X8831967Y-13052293D02*
X8831967Y-13004674D01*
X8831967Y-13004674D02*
X8841491Y-12966579D01*
X8841491Y-12966579D02*
X8851015Y-12947531D01*
X8851015Y-12947531D02*
X8860539Y-12938008D01*
X8860539Y-12938008D02*
X8879586Y-12928484D01*
X9136729Y-13128484D02*
X9022444Y-13128484D01*
X9079586Y-13128484D02*
X9079586Y-12928484D01*
X9079586Y-12928484D02*
X9060539Y-12957055D01*
X9060539Y-12957055D02*
X9041491Y-12976103D01*
X9041491Y-12976103D02*
X9022444Y-12985627D01*
X9308158Y-12928484D02*
X9270063Y-12928484D01*
X9270063Y-12928484D02*
X9251015Y-12938008D01*
X9251015Y-12938008D02*
X9241491Y-12947531D01*
X9241491Y-12947531D02*
X9222444Y-12976103D01*
X9222444Y-12976103D02*
X9212920Y-13014198D01*
X9212920Y-13014198D02*
X9212920Y-13090388D01*
X9212920Y-13090388D02*
X9222444Y-13109436D01*
X9222444Y-13109436D02*
X9231967Y-13118960D01*
X9231967Y-13118960D02*
X9251015Y-13128484D01*
X9251015Y-13128484D02*
X9289110Y-13128484D01*
X9289110Y-13128484D02*
X9308158Y-13118960D01*
X9308158Y-13118960D02*
X9317682Y-13109436D01*
X9317682Y-13109436D02*
X9327205Y-13090388D01*
X9327205Y-13090388D02*
X9327205Y-13042769D01*
X9327205Y-13042769D02*
X9317682Y-13023722D01*
X9317682Y-13023722D02*
X9308158Y-13014198D01*
X9308158Y-13014198D02*
X9289110Y-13004674D01*
X9289110Y-13004674D02*
X9251015Y-13004674D01*
X9251015Y-13004674D02*
X9231967Y-13014198D01*
X9231967Y-13014198D02*
X9222444Y-13023722D01*
X9222444Y-13023722D02*
X9212920Y-13042769D01*
X9412920Y-13128484D02*
X9412920Y-12995150D01*
X9412920Y-13014198D02*
X9422444Y-13004674D01*
X9422444Y-13004674D02*
X9441491Y-12995150D01*
X9441491Y-12995150D02*
X9470063Y-12995150D01*
X9470063Y-12995150D02*
X9489110Y-13004674D01*
X9489110Y-13004674D02*
X9498634Y-13023722D01*
X9498634Y-13023722D02*
X9498634Y-13128484D01*
X9498634Y-13023722D02*
X9508158Y-13004674D01*
X9508158Y-13004674D02*
X9527205Y-12995150D01*
X9527205Y-12995150D02*
X9555777Y-12995150D01*
X9555777Y-12995150D02*
X9574825Y-13004674D01*
X9574825Y-13004674D02*
X9584348Y-13023722D01*
X9584348Y-13023722D02*
X9584348Y-13128484D01*
X9679586Y-13128484D02*
X9679586Y-12995150D01*
X9679586Y-13014198D02*
X9689110Y-13004674D01*
X9689110Y-13004674D02*
X9708158Y-12995150D01*
X9708158Y-12995150D02*
X9736729Y-12995150D01*
X9736729Y-12995150D02*
X9755777Y-13004674D01*
X9755777Y-13004674D02*
X9765301Y-13023722D01*
X9765301Y-13023722D02*
X9765301Y-13128484D01*
X9765301Y-13023722D02*
X9774825Y-13004674D01*
X9774825Y-13004674D02*
X9793872Y-12995150D01*
X9793872Y-12995150D02*
X9822444Y-12995150D01*
X9822444Y-12995150D02*
X9841491Y-13004674D01*
X9841491Y-13004674D02*
X9851015Y-13023722D01*
X9851015Y-13023722D02*
X9851015Y-13128484D01*
X10241491Y-12918960D02*
X10070063Y-13176103D01*
X10498634Y-12928484D02*
X10517682Y-12928484D01*
X10517682Y-12928484D02*
X10536729Y-12938008D01*
X10536729Y-12938008D02*
X10546253Y-12947531D01*
X10546253Y-12947531D02*
X10555777Y-12966579D01*
X10555777Y-12966579D02*
X10565301Y-13004674D01*
X10565301Y-13004674D02*
X10565301Y-13052293D01*
X10565301Y-13052293D02*
X10555777Y-13090388D01*
X10555777Y-13090388D02*
X10546253Y-13109436D01*
X10546253Y-13109436D02*
X10536729Y-13118960D01*
X10536729Y-13118960D02*
X10517682Y-13128484D01*
X10517682Y-13128484D02*
X10498634Y-13128484D01*
X10498634Y-13128484D02*
X10479587Y-13118960D01*
X10479587Y-13118960D02*
X10470063Y-13109436D01*
X10470063Y-13109436D02*
X10460539Y-13090388D01*
X10460539Y-13090388D02*
X10451015Y-13052293D01*
X10451015Y-13052293D02*
X10451015Y-13004674D01*
X10451015Y-13004674D02*
X10460539Y-12966579D01*
X10460539Y-12966579D02*
X10470063Y-12947531D01*
X10470063Y-12947531D02*
X10479587Y-12938008D01*
X10479587Y-12938008D02*
X10498634Y-12928484D01*
X10651015Y-13109436D02*
X10660539Y-13118960D01*
X10660539Y-13118960D02*
X10651015Y-13128484D01*
X10651015Y-13128484D02*
X10641491Y-13118960D01*
X10641491Y-13118960D02*
X10651015Y-13109436D01*
X10651015Y-13109436D02*
X10651015Y-13128484D01*
X10784348Y-12928484D02*
X10803396Y-12928484D01*
X10803396Y-12928484D02*
X10822444Y-12938008D01*
X10822444Y-12938008D02*
X10831968Y-12947531D01*
X10831968Y-12947531D02*
X10841491Y-12966579D01*
X10841491Y-12966579D02*
X10851015Y-13004674D01*
X10851015Y-13004674D02*
X10851015Y-13052293D01*
X10851015Y-13052293D02*
X10841491Y-13090388D01*
X10841491Y-13090388D02*
X10831968Y-13109436D01*
X10831968Y-13109436D02*
X10822444Y-13118960D01*
X10822444Y-13118960D02*
X10803396Y-13128484D01*
X10803396Y-13128484D02*
X10784348Y-13128484D01*
X10784348Y-13128484D02*
X10765301Y-13118960D01*
X10765301Y-13118960D02*
X10755777Y-13109436D01*
X10755777Y-13109436D02*
X10746253Y-13090388D01*
X10746253Y-13090388D02*
X10736729Y-13052293D01*
X10736729Y-13052293D02*
X10736729Y-13004674D01*
X10736729Y-13004674D02*
X10746253Y-12966579D01*
X10746253Y-12966579D02*
X10755777Y-12947531D01*
X10755777Y-12947531D02*
X10765301Y-12938008D01*
X10765301Y-12938008D02*
X10784348Y-12928484D01*
X11022444Y-12995150D02*
X11022444Y-13128484D01*
X10974825Y-12918960D02*
X10927206Y-13061817D01*
X10927206Y-13061817D02*
X11051015Y-13061817D01*
X11165301Y-12928484D02*
X11184349Y-12928484D01*
X11184349Y-12928484D02*
X11203396Y-12938008D01*
X11203396Y-12938008D02*
X11212920Y-12947531D01*
X11212920Y-12947531D02*
X11222444Y-12966579D01*
X11222444Y-12966579D02*
X11231967Y-13004674D01*
X11231967Y-13004674D02*
X11231967Y-13052293D01*
X11231967Y-13052293D02*
X11222444Y-13090388D01*
X11222444Y-13090388D02*
X11212920Y-13109436D01*
X11212920Y-13109436D02*
X11203396Y-13118960D01*
X11203396Y-13118960D02*
X11184349Y-13128484D01*
X11184349Y-13128484D02*
X11165301Y-13128484D01*
X11165301Y-13128484D02*
X11146253Y-13118960D01*
X11146253Y-13118960D02*
X11136729Y-13109436D01*
X11136729Y-13109436D02*
X11127206Y-13090388D01*
X11127206Y-13090388D02*
X11117682Y-13052293D01*
X11117682Y-13052293D02*
X11117682Y-13004674D01*
X11117682Y-13004674D02*
X11127206Y-12966579D01*
X11127206Y-12966579D02*
X11136729Y-12947531D01*
X11136729Y-12947531D02*
X11146253Y-12938008D01*
X11146253Y-12938008D02*
X11165301Y-12928484D01*
X11355777Y-12928484D02*
X11374825Y-12928484D01*
X11374825Y-12928484D02*
X11393872Y-12938008D01*
X11393872Y-12938008D02*
X11403396Y-12947531D01*
X11403396Y-12947531D02*
X11412920Y-12966579D01*
X11412920Y-12966579D02*
X11422444Y-13004674D01*
X11422444Y-13004674D02*
X11422444Y-13052293D01*
X11422444Y-13052293D02*
X11412920Y-13090388D01*
X11412920Y-13090388D02*
X11403396Y-13109436D01*
X11403396Y-13109436D02*
X11393872Y-13118960D01*
X11393872Y-13118960D02*
X11374825Y-13128484D01*
X11374825Y-13128484D02*
X11355777Y-13128484D01*
X11355777Y-13128484D02*
X11336729Y-13118960D01*
X11336729Y-13118960D02*
X11327206Y-13109436D01*
X11327206Y-13109436D02*
X11317682Y-13090388D01*
X11317682Y-13090388D02*
X11308158Y-13052293D01*
X11308158Y-13052293D02*
X11308158Y-13004674D01*
X11308158Y-13004674D02*
X11317682Y-12966579D01*
X11317682Y-12966579D02*
X11327206Y-12947531D01*
X11327206Y-12947531D02*
X11336729Y-12938008D01*
X11336729Y-12938008D02*
X11355777Y-12928484D01*
X11498634Y-12928484D02*
X11498634Y-12966579D01*
X11574825Y-12928484D02*
X11574825Y-12966579D01*
X11870063Y-13204674D02*
X11860539Y-13195150D01*
X11860539Y-13195150D02*
X11841491Y-13166579D01*
X11841491Y-13166579D02*
X11831968Y-13147531D01*
X11831968Y-13147531D02*
X11822444Y-13118960D01*
X11822444Y-13118960D02*
X11812920Y-13071341D01*
X11812920Y-13071341D02*
X11812920Y-13033246D01*
X11812920Y-13033246D02*
X11822444Y-12985627D01*
X11822444Y-12985627D02*
X11831968Y-12957055D01*
X11831968Y-12957055D02*
X11841491Y-12938008D01*
X11841491Y-12938008D02*
X11860539Y-12909436D01*
X11860539Y-12909436D02*
X11870063Y-12899912D01*
X11927206Y-12928484D02*
X12051015Y-12928484D01*
X12051015Y-12928484D02*
X11984348Y-13004674D01*
X11984348Y-13004674D02*
X12012920Y-13004674D01*
X12012920Y-13004674D02*
X12031968Y-13014198D01*
X12031968Y-13014198D02*
X12041491Y-13023722D01*
X12041491Y-13023722D02*
X12051015Y-13042769D01*
X12051015Y-13042769D02*
X12051015Y-13090388D01*
X12051015Y-13090388D02*
X12041491Y-13109436D01*
X12041491Y-13109436D02*
X12031968Y-13118960D01*
X12031968Y-13118960D02*
X12012920Y-13128484D01*
X12012920Y-13128484D02*
X11955777Y-13128484D01*
X11955777Y-13128484D02*
X11936729Y-13118960D01*
X11936729Y-13118960D02*
X11927206Y-13109436D01*
X12174825Y-12928484D02*
X12193872Y-12928484D01*
X12193872Y-12928484D02*
X12212920Y-12938008D01*
X12212920Y-12938008D02*
X12222444Y-12947531D01*
X12222444Y-12947531D02*
X12231968Y-12966579D01*
X12231968Y-12966579D02*
X12241491Y-13004674D01*
X12241491Y-13004674D02*
X12241491Y-13052293D01*
X12241491Y-13052293D02*
X12231968Y-13090388D01*
X12231968Y-13090388D02*
X12222444Y-13109436D01*
X12222444Y-13109436D02*
X12212920Y-13118960D01*
X12212920Y-13118960D02*
X12193872Y-13128484D01*
X12193872Y-13128484D02*
X12174825Y-13128484D01*
X12174825Y-13128484D02*
X12155777Y-13118960D01*
X12155777Y-13118960D02*
X12146253Y-13109436D01*
X12146253Y-13109436D02*
X12136729Y-13090388D01*
X12136729Y-13090388D02*
X12127206Y-13052293D01*
X12127206Y-13052293D02*
X12127206Y-13004674D01*
X12127206Y-13004674D02*
X12136729Y-12966579D01*
X12136729Y-12966579D02*
X12146253Y-12947531D01*
X12146253Y-12947531D02*
X12155777Y-12938008D01*
X12155777Y-12938008D02*
X12174825Y-12928484D01*
X12479587Y-13128484D02*
X12479587Y-12928484D01*
X12565301Y-13128484D02*
X12565301Y-13023722D01*
X12565301Y-13023722D02*
X12555777Y-13004674D01*
X12555777Y-13004674D02*
X12536730Y-12995150D01*
X12536730Y-12995150D02*
X12508158Y-12995150D01*
X12508158Y-12995150D02*
X12489110Y-13004674D01*
X12489110Y-13004674D02*
X12479587Y-13014198D01*
X12689110Y-13128484D02*
X12670063Y-13118960D01*
X12670063Y-13118960D02*
X12660539Y-13109436D01*
X12660539Y-13109436D02*
X12651015Y-13090388D01*
X12651015Y-13090388D02*
X12651015Y-13033246D01*
X12651015Y-13033246D02*
X12660539Y-13014198D01*
X12660539Y-13014198D02*
X12670063Y-13004674D01*
X12670063Y-13004674D02*
X12689110Y-12995150D01*
X12689110Y-12995150D02*
X12717682Y-12995150D01*
X12717682Y-12995150D02*
X12736730Y-13004674D01*
X12736730Y-13004674D02*
X12746253Y-13014198D01*
X12746253Y-13014198D02*
X12755777Y-13033246D01*
X12755777Y-13033246D02*
X12755777Y-13090388D01*
X12755777Y-13090388D02*
X12746253Y-13109436D01*
X12746253Y-13109436D02*
X12736730Y-13118960D01*
X12736730Y-13118960D02*
X12717682Y-13128484D01*
X12717682Y-13128484D02*
X12689110Y-13128484D01*
X12870063Y-13128484D02*
X12851015Y-13118960D01*
X12851015Y-13118960D02*
X12841491Y-13099912D01*
X12841491Y-13099912D02*
X12841491Y-12928484D01*
X13022444Y-13118960D02*
X13003396Y-13128484D01*
X13003396Y-13128484D02*
X12965301Y-13128484D01*
X12965301Y-13128484D02*
X12946253Y-13118960D01*
X12946253Y-13118960D02*
X12936730Y-13099912D01*
X12936730Y-13099912D02*
X12936730Y-13023722D01*
X12936730Y-13023722D02*
X12946253Y-13004674D01*
X12946253Y-13004674D02*
X12965301Y-12995150D01*
X12965301Y-12995150D02*
X13003396Y-12995150D01*
X13003396Y-12995150D02*
X13022444Y-13004674D01*
X13022444Y-13004674D02*
X13031968Y-13023722D01*
X13031968Y-13023722D02*
X13031968Y-13042769D01*
X13031968Y-13042769D02*
X12936730Y-13061817D01*
X13108158Y-13118960D02*
X13127206Y-13128484D01*
X13127206Y-13128484D02*
X13165301Y-13128484D01*
X13165301Y-13128484D02*
X13184349Y-13118960D01*
X13184349Y-13118960D02*
X13193872Y-13099912D01*
X13193872Y-13099912D02*
X13193872Y-13090388D01*
X13193872Y-13090388D02*
X13184349Y-13071341D01*
X13184349Y-13071341D02*
X13165301Y-13061817D01*
X13165301Y-13061817D02*
X13136730Y-13061817D01*
X13136730Y-13061817D02*
X13117682Y-13052293D01*
X13117682Y-13052293D02*
X13108158Y-13033246D01*
X13108158Y-13033246D02*
X13108158Y-13023722D01*
X13108158Y-13023722D02*
X13117682Y-13004674D01*
X13117682Y-13004674D02*
X13136730Y-12995150D01*
X13136730Y-12995150D02*
X13165301Y-12995150D01*
X13165301Y-12995150D02*
X13184349Y-13004674D01*
X13260539Y-13204674D02*
X13270063Y-13195150D01*
X13270063Y-13195150D02*
X13289111Y-13166579D01*
X13289111Y-13166579D02*
X13298634Y-13147531D01*
X13298634Y-13147531D02*
X13308158Y-13118960D01*
X13308158Y-13118960D02*
X13317682Y-13071341D01*
X13317682Y-13071341D02*
X13317682Y-13033246D01*
X13317682Y-13033246D02*
X13308158Y-12985627D01*
X13308158Y-12985627D02*
X13298634Y-12957055D01*
X13298634Y-12957055D02*
X13289111Y-12938008D01*
X13289111Y-12938008D02*
X13270063Y-12909436D01*
X13270063Y-12909436D02*
X13260539Y-12899912D01*
D13*
X8240000Y-13356000D02*
X8295000Y-13301000D01*
X8240000Y-13246000D01*
X8185000Y-13301000D01*
X8240000Y-13356000D01*
D11*
X8660539Y-13392484D02*
X8546253Y-13392484D01*
X8603396Y-13392484D02*
X8603396Y-13192484D01*
X8603396Y-13192484D02*
X8584348Y-13221055D01*
X8584348Y-13221055D02*
X8565301Y-13240103D01*
X8565301Y-13240103D02*
X8546253Y-13249627D01*
X8746253Y-13373436D02*
X8755777Y-13382960D01*
X8755777Y-13382960D02*
X8746253Y-13392484D01*
X8746253Y-13392484D02*
X8736729Y-13382960D01*
X8736729Y-13382960D02*
X8746253Y-13373436D01*
X8746253Y-13373436D02*
X8746253Y-13392484D01*
X8946253Y-13392484D02*
X8831967Y-13392484D01*
X8889110Y-13392484D02*
X8889110Y-13192484D01*
X8889110Y-13192484D02*
X8870063Y-13221055D01*
X8870063Y-13221055D02*
X8851015Y-13240103D01*
X8851015Y-13240103D02*
X8831967Y-13249627D01*
X9070063Y-13192484D02*
X9089110Y-13192484D01*
X9089110Y-13192484D02*
X9108158Y-13202008D01*
X9108158Y-13202008D02*
X9117682Y-13211531D01*
X9117682Y-13211531D02*
X9127205Y-13230579D01*
X9127205Y-13230579D02*
X9136729Y-13268674D01*
X9136729Y-13268674D02*
X9136729Y-13316293D01*
X9136729Y-13316293D02*
X9127205Y-13354388D01*
X9127205Y-13354388D02*
X9117682Y-13373436D01*
X9117682Y-13373436D02*
X9108158Y-13382960D01*
X9108158Y-13382960D02*
X9089110Y-13392484D01*
X9089110Y-13392484D02*
X9070063Y-13392484D01*
X9070063Y-13392484D02*
X9051015Y-13382960D01*
X9051015Y-13382960D02*
X9041491Y-13373436D01*
X9041491Y-13373436D02*
X9031967Y-13354388D01*
X9031967Y-13354388D02*
X9022444Y-13316293D01*
X9022444Y-13316293D02*
X9022444Y-13268674D01*
X9022444Y-13268674D02*
X9031967Y-13230579D01*
X9031967Y-13230579D02*
X9041491Y-13211531D01*
X9041491Y-13211531D02*
X9051015Y-13202008D01*
X9051015Y-13202008D02*
X9070063Y-13192484D01*
X9260539Y-13192484D02*
X9279586Y-13192484D01*
X9279586Y-13192484D02*
X9298634Y-13202008D01*
X9298634Y-13202008D02*
X9308158Y-13211531D01*
X9308158Y-13211531D02*
X9317682Y-13230579D01*
X9317682Y-13230579D02*
X9327205Y-13268674D01*
X9327205Y-13268674D02*
X9327205Y-13316293D01*
X9327205Y-13316293D02*
X9317682Y-13354388D01*
X9317682Y-13354388D02*
X9308158Y-13373436D01*
X9308158Y-13373436D02*
X9298634Y-13382960D01*
X9298634Y-13382960D02*
X9279586Y-13392484D01*
X9279586Y-13392484D02*
X9260539Y-13392484D01*
X9260539Y-13392484D02*
X9241491Y-13382960D01*
X9241491Y-13382960D02*
X9231967Y-13373436D01*
X9231967Y-13373436D02*
X9222444Y-13354388D01*
X9222444Y-13354388D02*
X9212920Y-13316293D01*
X9212920Y-13316293D02*
X9212920Y-13268674D01*
X9212920Y-13268674D02*
X9222444Y-13230579D01*
X9222444Y-13230579D02*
X9231967Y-13211531D01*
X9231967Y-13211531D02*
X9241491Y-13202008D01*
X9241491Y-13202008D02*
X9260539Y-13192484D01*
X9412920Y-13392484D02*
X9412920Y-13259150D01*
X9412920Y-13278198D02*
X9422444Y-13268674D01*
X9422444Y-13268674D02*
X9441491Y-13259150D01*
X9441491Y-13259150D02*
X9470063Y-13259150D01*
X9470063Y-13259150D02*
X9489110Y-13268674D01*
X9489110Y-13268674D02*
X9498634Y-13287722D01*
X9498634Y-13287722D02*
X9498634Y-13392484D01*
X9498634Y-13287722D02*
X9508158Y-13268674D01*
X9508158Y-13268674D02*
X9527205Y-13259150D01*
X9527205Y-13259150D02*
X9555777Y-13259150D01*
X9555777Y-13259150D02*
X9574825Y-13268674D01*
X9574825Y-13268674D02*
X9584348Y-13287722D01*
X9584348Y-13287722D02*
X9584348Y-13392484D01*
X9679586Y-13392484D02*
X9679586Y-13259150D01*
X9679586Y-13278198D02*
X9689110Y-13268674D01*
X9689110Y-13268674D02*
X9708158Y-13259150D01*
X9708158Y-13259150D02*
X9736729Y-13259150D01*
X9736729Y-13259150D02*
X9755777Y-13268674D01*
X9755777Y-13268674D02*
X9765301Y-13287722D01*
X9765301Y-13287722D02*
X9765301Y-13392484D01*
X9765301Y-13287722D02*
X9774825Y-13268674D01*
X9774825Y-13268674D02*
X9793872Y-13259150D01*
X9793872Y-13259150D02*
X9822444Y-13259150D01*
X9822444Y-13259150D02*
X9841491Y-13268674D01*
X9841491Y-13268674D02*
X9851015Y-13287722D01*
X9851015Y-13287722D02*
X9851015Y-13392484D01*
X10241491Y-13182960D02*
X10070063Y-13440103D01*
X10498634Y-13192484D02*
X10517682Y-13192484D01*
X10517682Y-13192484D02*
X10536729Y-13202008D01*
X10536729Y-13202008D02*
X10546253Y-13211531D01*
X10546253Y-13211531D02*
X10555777Y-13230579D01*
X10555777Y-13230579D02*
X10565301Y-13268674D01*
X10565301Y-13268674D02*
X10565301Y-13316293D01*
X10565301Y-13316293D02*
X10555777Y-13354388D01*
X10555777Y-13354388D02*
X10546253Y-13373436D01*
X10546253Y-13373436D02*
X10536729Y-13382960D01*
X10536729Y-13382960D02*
X10517682Y-13392484D01*
X10517682Y-13392484D02*
X10498634Y-13392484D01*
X10498634Y-13392484D02*
X10479587Y-13382960D01*
X10479587Y-13382960D02*
X10470063Y-13373436D01*
X10470063Y-13373436D02*
X10460539Y-13354388D01*
X10460539Y-13354388D02*
X10451015Y-13316293D01*
X10451015Y-13316293D02*
X10451015Y-13268674D01*
X10451015Y-13268674D02*
X10460539Y-13230579D01*
X10460539Y-13230579D02*
X10470063Y-13211531D01*
X10470063Y-13211531D02*
X10479587Y-13202008D01*
X10479587Y-13202008D02*
X10498634Y-13192484D01*
X10651015Y-13373436D02*
X10660539Y-13382960D01*
X10660539Y-13382960D02*
X10651015Y-13392484D01*
X10651015Y-13392484D02*
X10641491Y-13382960D01*
X10641491Y-13382960D02*
X10651015Y-13373436D01*
X10651015Y-13373436D02*
X10651015Y-13392484D01*
X10784348Y-13192484D02*
X10803396Y-13192484D01*
X10803396Y-13192484D02*
X10822444Y-13202008D01*
X10822444Y-13202008D02*
X10831968Y-13211531D01*
X10831968Y-13211531D02*
X10841491Y-13230579D01*
X10841491Y-13230579D02*
X10851015Y-13268674D01*
X10851015Y-13268674D02*
X10851015Y-13316293D01*
X10851015Y-13316293D02*
X10841491Y-13354388D01*
X10841491Y-13354388D02*
X10831968Y-13373436D01*
X10831968Y-13373436D02*
X10822444Y-13382960D01*
X10822444Y-13382960D02*
X10803396Y-13392484D01*
X10803396Y-13392484D02*
X10784348Y-13392484D01*
X10784348Y-13392484D02*
X10765301Y-13382960D01*
X10765301Y-13382960D02*
X10755777Y-13373436D01*
X10755777Y-13373436D02*
X10746253Y-13354388D01*
X10746253Y-13354388D02*
X10736729Y-13316293D01*
X10736729Y-13316293D02*
X10736729Y-13268674D01*
X10736729Y-13268674D02*
X10746253Y-13230579D01*
X10746253Y-13230579D02*
X10755777Y-13211531D01*
X10755777Y-13211531D02*
X10765301Y-13202008D01*
X10765301Y-13202008D02*
X10784348Y-13192484D01*
X11022444Y-13259150D02*
X11022444Y-13392484D01*
X10974825Y-13182960D02*
X10927206Y-13325817D01*
X10927206Y-13325817D02*
X11051015Y-13325817D01*
X11108158Y-13192484D02*
X11231967Y-13192484D01*
X11231967Y-13192484D02*
X11165301Y-13268674D01*
X11165301Y-13268674D02*
X11193872Y-13268674D01*
X11193872Y-13268674D02*
X11212920Y-13278198D01*
X11212920Y-13278198D02*
X11222444Y-13287722D01*
X11222444Y-13287722D02*
X11231967Y-13306769D01*
X11231967Y-13306769D02*
X11231967Y-13354388D01*
X11231967Y-13354388D02*
X11222444Y-13373436D01*
X11222444Y-13373436D02*
X11212920Y-13382960D01*
X11212920Y-13382960D02*
X11193872Y-13392484D01*
X11193872Y-13392484D02*
X11136729Y-13392484D01*
X11136729Y-13392484D02*
X11117682Y-13382960D01*
X11117682Y-13382960D02*
X11108158Y-13373436D01*
X11298634Y-13192484D02*
X11422444Y-13192484D01*
X11422444Y-13192484D02*
X11355777Y-13268674D01*
X11355777Y-13268674D02*
X11384348Y-13268674D01*
X11384348Y-13268674D02*
X11403396Y-13278198D01*
X11403396Y-13278198D02*
X11412920Y-13287722D01*
X11412920Y-13287722D02*
X11422444Y-13306769D01*
X11422444Y-13306769D02*
X11422444Y-13354388D01*
X11422444Y-13354388D02*
X11412920Y-13373436D01*
X11412920Y-13373436D02*
X11403396Y-13382960D01*
X11403396Y-13382960D02*
X11384348Y-13392484D01*
X11384348Y-13392484D02*
X11327206Y-13392484D01*
X11327206Y-13392484D02*
X11308158Y-13382960D01*
X11308158Y-13382960D02*
X11298634Y-13373436D01*
X11498634Y-13192484D02*
X11498634Y-13230579D01*
X11574825Y-13192484D02*
X11574825Y-13230579D01*
X11870063Y-13468674D02*
X11860539Y-13459150D01*
X11860539Y-13459150D02*
X11841491Y-13430579D01*
X11841491Y-13430579D02*
X11831968Y-13411531D01*
X11831968Y-13411531D02*
X11822444Y-13382960D01*
X11822444Y-13382960D02*
X11812920Y-13335341D01*
X11812920Y-13335341D02*
X11812920Y-13297246D01*
X11812920Y-13297246D02*
X11822444Y-13249627D01*
X11822444Y-13249627D02*
X11831968Y-13221055D01*
X11831968Y-13221055D02*
X11841491Y-13202008D01*
X11841491Y-13202008D02*
X11860539Y-13173436D01*
X11860539Y-13173436D02*
X11870063Y-13163912D01*
X12051015Y-13392484D02*
X11936729Y-13392484D01*
X11993872Y-13392484D02*
X11993872Y-13192484D01*
X11993872Y-13192484D02*
X11974825Y-13221055D01*
X11974825Y-13221055D02*
X11955777Y-13240103D01*
X11955777Y-13240103D02*
X11936729Y-13249627D01*
X12222444Y-13259150D02*
X12222444Y-13392484D01*
X12174825Y-13182960D02*
X12127206Y-13325817D01*
X12127206Y-13325817D02*
X12251015Y-13325817D01*
X12479587Y-13392484D02*
X12479587Y-13192484D01*
X12565301Y-13392484D02*
X12565301Y-13287722D01*
X12565301Y-13287722D02*
X12555777Y-13268674D01*
X12555777Y-13268674D02*
X12536730Y-13259150D01*
X12536730Y-13259150D02*
X12508158Y-13259150D01*
X12508158Y-13259150D02*
X12489110Y-13268674D01*
X12489110Y-13268674D02*
X12479587Y-13278198D01*
X12689110Y-13392484D02*
X12670063Y-13382960D01*
X12670063Y-13382960D02*
X12660539Y-13373436D01*
X12660539Y-13373436D02*
X12651015Y-13354388D01*
X12651015Y-13354388D02*
X12651015Y-13297246D01*
X12651015Y-13297246D02*
X12660539Y-13278198D01*
X12660539Y-13278198D02*
X12670063Y-13268674D01*
X12670063Y-13268674D02*
X12689110Y-13259150D01*
X12689110Y-13259150D02*
X12717682Y-13259150D01*
X12717682Y-13259150D02*
X12736730Y-13268674D01*
X12736730Y-13268674D02*
X12746253Y-13278198D01*
X12746253Y-13278198D02*
X12755777Y-13297246D01*
X12755777Y-13297246D02*
X12755777Y-13354388D01*
X12755777Y-13354388D02*
X12746253Y-13373436D01*
X12746253Y-13373436D02*
X12736730Y-13382960D01*
X12736730Y-13382960D02*
X12717682Y-13392484D01*
X12717682Y-13392484D02*
X12689110Y-13392484D01*
X12870063Y-13392484D02*
X12851015Y-13382960D01*
X12851015Y-13382960D02*
X12841491Y-13363912D01*
X12841491Y-13363912D02*
X12841491Y-13192484D01*
X13022444Y-13382960D02*
X13003396Y-13392484D01*
X13003396Y-13392484D02*
X12965301Y-13392484D01*
X12965301Y-13392484D02*
X12946253Y-13382960D01*
X12946253Y-13382960D02*
X12936730Y-13363912D01*
X12936730Y-13363912D02*
X12936730Y-13287722D01*
X12936730Y-13287722D02*
X12946253Y-13268674D01*
X12946253Y-13268674D02*
X12965301Y-13259150D01*
X12965301Y-13259150D02*
X13003396Y-13259150D01*
X13003396Y-13259150D02*
X13022444Y-13268674D01*
X13022444Y-13268674D02*
X13031968Y-13287722D01*
X13031968Y-13287722D02*
X13031968Y-13306769D01*
X13031968Y-13306769D02*
X12936730Y-13325817D01*
X13108158Y-13382960D02*
X13127206Y-13392484D01*
X13127206Y-13392484D02*
X13165301Y-13392484D01*
X13165301Y-13392484D02*
X13184349Y-13382960D01*
X13184349Y-13382960D02*
X13193872Y-13363912D01*
X13193872Y-13363912D02*
X13193872Y-13354388D01*
X13193872Y-13354388D02*
X13184349Y-13335341D01*
X13184349Y-13335341D02*
X13165301Y-13325817D01*
X13165301Y-13325817D02*
X13136730Y-13325817D01*
X13136730Y-13325817D02*
X13117682Y-13316293D01*
X13117682Y-13316293D02*
X13108158Y-13297246D01*
X13108158Y-13297246D02*
X13108158Y-13287722D01*
X13108158Y-13287722D02*
X13117682Y-13268674D01*
X13117682Y-13268674D02*
X13136730Y-13259150D01*
X13136730Y-13259150D02*
X13165301Y-13259150D01*
X13165301Y-13259150D02*
X13184349Y-13268674D01*
X13260539Y-13468674D02*
X13270063Y-13459150D01*
X13270063Y-13459150D02*
X13289111Y-13430579D01*
X13289111Y-13430579D02*
X13298634Y-13411531D01*
X13298634Y-13411531D02*
X13308158Y-13382960D01*
X13308158Y-13382960D02*
X13317682Y-13335341D01*
X13317682Y-13335341D02*
X13317682Y-13297246D01*
X13317682Y-13297246D02*
X13308158Y-13249627D01*
X13308158Y-13249627D02*
X13298634Y-13221055D01*
X13298634Y-13221055D02*
X13289111Y-13202008D01*
X13289111Y-13202008D02*
X13270063Y-13173436D01*
X13270063Y-13173436D02*
X13260539Y-13163912D01*
D14*
X8176000Y-13505500D02*
X8295000Y-13624500D01*
X8295000Y-13505500D02*
X8176000Y-13624500D01*
X8295000Y-13565000D02*
G75*
G03*
X8295000Y-13565000I-59500J0D01*
G01*
D11*
X8660539Y-13656484D02*
X8546253Y-13656484D01*
X8603396Y-13656484D02*
X8603396Y-13456484D01*
X8603396Y-13456484D02*
X8584348Y-13485055D01*
X8584348Y-13485055D02*
X8565301Y-13504103D01*
X8565301Y-13504103D02*
X8546253Y-13513627D01*
X8746253Y-13637436D02*
X8755777Y-13646960D01*
X8755777Y-13646960D02*
X8746253Y-13656484D01*
X8746253Y-13656484D02*
X8736729Y-13646960D01*
X8736729Y-13646960D02*
X8746253Y-13637436D01*
X8746253Y-13637436D02*
X8746253Y-13656484D01*
X8946253Y-13656484D02*
X8831967Y-13656484D01*
X8889110Y-13656484D02*
X8889110Y-13456484D01*
X8889110Y-13456484D02*
X8870063Y-13485055D01*
X8870063Y-13485055D02*
X8851015Y-13504103D01*
X8851015Y-13504103D02*
X8831967Y-13513627D01*
X9041491Y-13656484D02*
X9079586Y-13656484D01*
X9079586Y-13656484D02*
X9098634Y-13646960D01*
X9098634Y-13646960D02*
X9108158Y-13637436D01*
X9108158Y-13637436D02*
X9127205Y-13608865D01*
X9127205Y-13608865D02*
X9136729Y-13570769D01*
X9136729Y-13570769D02*
X9136729Y-13494579D01*
X9136729Y-13494579D02*
X9127205Y-13475531D01*
X9127205Y-13475531D02*
X9117682Y-13466008D01*
X9117682Y-13466008D02*
X9098634Y-13456484D01*
X9098634Y-13456484D02*
X9060539Y-13456484D01*
X9060539Y-13456484D02*
X9041491Y-13466008D01*
X9041491Y-13466008D02*
X9031967Y-13475531D01*
X9031967Y-13475531D02*
X9022444Y-13494579D01*
X9022444Y-13494579D02*
X9022444Y-13542198D01*
X9022444Y-13542198D02*
X9031967Y-13561246D01*
X9031967Y-13561246D02*
X9041491Y-13570769D01*
X9041491Y-13570769D02*
X9060539Y-13580293D01*
X9060539Y-13580293D02*
X9098634Y-13580293D01*
X9098634Y-13580293D02*
X9117682Y-13570769D01*
X9117682Y-13570769D02*
X9127205Y-13561246D01*
X9127205Y-13561246D02*
X9136729Y-13542198D01*
X9260539Y-13456484D02*
X9279586Y-13456484D01*
X9279586Y-13456484D02*
X9298634Y-13466008D01*
X9298634Y-13466008D02*
X9308158Y-13475531D01*
X9308158Y-13475531D02*
X9317682Y-13494579D01*
X9317682Y-13494579D02*
X9327205Y-13532674D01*
X9327205Y-13532674D02*
X9327205Y-13580293D01*
X9327205Y-13580293D02*
X9317682Y-13618388D01*
X9317682Y-13618388D02*
X9308158Y-13637436D01*
X9308158Y-13637436D02*
X9298634Y-13646960D01*
X9298634Y-13646960D02*
X9279586Y-13656484D01*
X9279586Y-13656484D02*
X9260539Y-13656484D01*
X9260539Y-13656484D02*
X9241491Y-13646960D01*
X9241491Y-13646960D02*
X9231967Y-13637436D01*
X9231967Y-13637436D02*
X9222444Y-13618388D01*
X9222444Y-13618388D02*
X9212920Y-13580293D01*
X9212920Y-13580293D02*
X9212920Y-13532674D01*
X9212920Y-13532674D02*
X9222444Y-13494579D01*
X9222444Y-13494579D02*
X9231967Y-13475531D01*
X9231967Y-13475531D02*
X9241491Y-13466008D01*
X9241491Y-13466008D02*
X9260539Y-13456484D01*
X9412920Y-13656484D02*
X9412920Y-13523150D01*
X9412920Y-13542198D02*
X9422444Y-13532674D01*
X9422444Y-13532674D02*
X9441491Y-13523150D01*
X9441491Y-13523150D02*
X9470063Y-13523150D01*
X9470063Y-13523150D02*
X9489110Y-13532674D01*
X9489110Y-13532674D02*
X9498634Y-13551722D01*
X9498634Y-13551722D02*
X9498634Y-13656484D01*
X9498634Y-13551722D02*
X9508158Y-13532674D01*
X9508158Y-13532674D02*
X9527205Y-13523150D01*
X9527205Y-13523150D02*
X9555777Y-13523150D01*
X9555777Y-13523150D02*
X9574825Y-13532674D01*
X9574825Y-13532674D02*
X9584348Y-13551722D01*
X9584348Y-13551722D02*
X9584348Y-13656484D01*
X9679586Y-13656484D02*
X9679586Y-13523150D01*
X9679586Y-13542198D02*
X9689110Y-13532674D01*
X9689110Y-13532674D02*
X9708158Y-13523150D01*
X9708158Y-13523150D02*
X9736729Y-13523150D01*
X9736729Y-13523150D02*
X9755777Y-13532674D01*
X9755777Y-13532674D02*
X9765301Y-13551722D01*
X9765301Y-13551722D02*
X9765301Y-13656484D01*
X9765301Y-13551722D02*
X9774825Y-13532674D01*
X9774825Y-13532674D02*
X9793872Y-13523150D01*
X9793872Y-13523150D02*
X9822444Y-13523150D01*
X9822444Y-13523150D02*
X9841491Y-13532674D01*
X9841491Y-13532674D02*
X9851015Y-13551722D01*
X9851015Y-13551722D02*
X9851015Y-13656484D01*
X10241491Y-13446960D02*
X10070063Y-13704103D01*
X10498634Y-13456484D02*
X10517682Y-13456484D01*
X10517682Y-13456484D02*
X10536729Y-13466008D01*
X10536729Y-13466008D02*
X10546253Y-13475531D01*
X10546253Y-13475531D02*
X10555777Y-13494579D01*
X10555777Y-13494579D02*
X10565301Y-13532674D01*
X10565301Y-13532674D02*
X10565301Y-13580293D01*
X10565301Y-13580293D02*
X10555777Y-13618388D01*
X10555777Y-13618388D02*
X10546253Y-13637436D01*
X10546253Y-13637436D02*
X10536729Y-13646960D01*
X10536729Y-13646960D02*
X10517682Y-13656484D01*
X10517682Y-13656484D02*
X10498634Y-13656484D01*
X10498634Y-13656484D02*
X10479587Y-13646960D01*
X10479587Y-13646960D02*
X10470063Y-13637436D01*
X10470063Y-13637436D02*
X10460539Y-13618388D01*
X10460539Y-13618388D02*
X10451015Y-13580293D01*
X10451015Y-13580293D02*
X10451015Y-13532674D01*
X10451015Y-13532674D02*
X10460539Y-13494579D01*
X10460539Y-13494579D02*
X10470063Y-13475531D01*
X10470063Y-13475531D02*
X10479587Y-13466008D01*
X10479587Y-13466008D02*
X10498634Y-13456484D01*
X10651015Y-13637436D02*
X10660539Y-13646960D01*
X10660539Y-13646960D02*
X10651015Y-13656484D01*
X10651015Y-13656484D02*
X10641491Y-13646960D01*
X10641491Y-13646960D02*
X10651015Y-13637436D01*
X10651015Y-13637436D02*
X10651015Y-13656484D01*
X10784348Y-13456484D02*
X10803396Y-13456484D01*
X10803396Y-13456484D02*
X10822444Y-13466008D01*
X10822444Y-13466008D02*
X10831968Y-13475531D01*
X10831968Y-13475531D02*
X10841491Y-13494579D01*
X10841491Y-13494579D02*
X10851015Y-13532674D01*
X10851015Y-13532674D02*
X10851015Y-13580293D01*
X10851015Y-13580293D02*
X10841491Y-13618388D01*
X10841491Y-13618388D02*
X10831968Y-13637436D01*
X10831968Y-13637436D02*
X10822444Y-13646960D01*
X10822444Y-13646960D02*
X10803396Y-13656484D01*
X10803396Y-13656484D02*
X10784348Y-13656484D01*
X10784348Y-13656484D02*
X10765301Y-13646960D01*
X10765301Y-13646960D02*
X10755777Y-13637436D01*
X10755777Y-13637436D02*
X10746253Y-13618388D01*
X10746253Y-13618388D02*
X10736729Y-13580293D01*
X10736729Y-13580293D02*
X10736729Y-13532674D01*
X10736729Y-13532674D02*
X10746253Y-13494579D01*
X10746253Y-13494579D02*
X10755777Y-13475531D01*
X10755777Y-13475531D02*
X10765301Y-13466008D01*
X10765301Y-13466008D02*
X10784348Y-13456484D01*
X11022444Y-13523150D02*
X11022444Y-13656484D01*
X10974825Y-13446960D02*
X10927206Y-13589817D01*
X10927206Y-13589817D02*
X11051015Y-13589817D01*
X11212920Y-13456484D02*
X11174825Y-13456484D01*
X11174825Y-13456484D02*
X11155777Y-13466008D01*
X11155777Y-13466008D02*
X11146253Y-13475531D01*
X11146253Y-13475531D02*
X11127206Y-13504103D01*
X11127206Y-13504103D02*
X11117682Y-13542198D01*
X11117682Y-13542198D02*
X11117682Y-13618388D01*
X11117682Y-13618388D02*
X11127206Y-13637436D01*
X11127206Y-13637436D02*
X11136729Y-13646960D01*
X11136729Y-13646960D02*
X11155777Y-13656484D01*
X11155777Y-13656484D02*
X11193872Y-13656484D01*
X11193872Y-13656484D02*
X11212920Y-13646960D01*
X11212920Y-13646960D02*
X11222444Y-13637436D01*
X11222444Y-13637436D02*
X11231967Y-13618388D01*
X11231967Y-13618388D02*
X11231967Y-13570769D01*
X11231967Y-13570769D02*
X11222444Y-13551722D01*
X11222444Y-13551722D02*
X11212920Y-13542198D01*
X11212920Y-13542198D02*
X11193872Y-13532674D01*
X11193872Y-13532674D02*
X11155777Y-13532674D01*
X11155777Y-13532674D02*
X11136729Y-13542198D01*
X11136729Y-13542198D02*
X11127206Y-13551722D01*
X11127206Y-13551722D02*
X11117682Y-13570769D01*
X11327206Y-13656484D02*
X11365301Y-13656484D01*
X11365301Y-13656484D02*
X11384348Y-13646960D01*
X11384348Y-13646960D02*
X11393872Y-13637436D01*
X11393872Y-13637436D02*
X11412920Y-13608865D01*
X11412920Y-13608865D02*
X11422444Y-13570769D01*
X11422444Y-13570769D02*
X11422444Y-13494579D01*
X11422444Y-13494579D02*
X11412920Y-13475531D01*
X11412920Y-13475531D02*
X11403396Y-13466008D01*
X11403396Y-13466008D02*
X11384348Y-13456484D01*
X11384348Y-13456484D02*
X11346253Y-13456484D01*
X11346253Y-13456484D02*
X11327206Y-13466008D01*
X11327206Y-13466008D02*
X11317682Y-13475531D01*
X11317682Y-13475531D02*
X11308158Y-13494579D01*
X11308158Y-13494579D02*
X11308158Y-13542198D01*
X11308158Y-13542198D02*
X11317682Y-13561246D01*
X11317682Y-13561246D02*
X11327206Y-13570769D01*
X11327206Y-13570769D02*
X11346253Y-13580293D01*
X11346253Y-13580293D02*
X11384348Y-13580293D01*
X11384348Y-13580293D02*
X11403396Y-13570769D01*
X11403396Y-13570769D02*
X11412920Y-13561246D01*
X11412920Y-13561246D02*
X11422444Y-13542198D01*
X11498634Y-13456484D02*
X11498634Y-13494579D01*
X11574825Y-13456484D02*
X11574825Y-13494579D01*
X11870063Y-13732674D02*
X11860539Y-13723150D01*
X11860539Y-13723150D02*
X11841491Y-13694579D01*
X11841491Y-13694579D02*
X11831968Y-13675531D01*
X11831968Y-13675531D02*
X11822444Y-13646960D01*
X11822444Y-13646960D02*
X11812920Y-13599341D01*
X11812920Y-13599341D02*
X11812920Y-13561246D01*
X11812920Y-13561246D02*
X11822444Y-13513627D01*
X11822444Y-13513627D02*
X11831968Y-13485055D01*
X11831968Y-13485055D02*
X11841491Y-13466008D01*
X11841491Y-13466008D02*
X11860539Y-13437436D01*
X11860539Y-13437436D02*
X11870063Y-13427912D01*
X11936729Y-13475531D02*
X11946253Y-13466008D01*
X11946253Y-13466008D02*
X11965301Y-13456484D01*
X11965301Y-13456484D02*
X12012920Y-13456484D01*
X12012920Y-13456484D02*
X12031968Y-13466008D01*
X12031968Y-13466008D02*
X12041491Y-13475531D01*
X12041491Y-13475531D02*
X12051015Y-13494579D01*
X12051015Y-13494579D02*
X12051015Y-13513627D01*
X12051015Y-13513627D02*
X12041491Y-13542198D01*
X12041491Y-13542198D02*
X11927206Y-13656484D01*
X11927206Y-13656484D02*
X12051015Y-13656484D01*
X12222444Y-13456484D02*
X12184348Y-13456484D01*
X12184348Y-13456484D02*
X12165301Y-13466008D01*
X12165301Y-13466008D02*
X12155777Y-13475531D01*
X12155777Y-13475531D02*
X12136729Y-13504103D01*
X12136729Y-13504103D02*
X12127206Y-13542198D01*
X12127206Y-13542198D02*
X12127206Y-13618388D01*
X12127206Y-13618388D02*
X12136729Y-13637436D01*
X12136729Y-13637436D02*
X12146253Y-13646960D01*
X12146253Y-13646960D02*
X12165301Y-13656484D01*
X12165301Y-13656484D02*
X12203396Y-13656484D01*
X12203396Y-13656484D02*
X12222444Y-13646960D01*
X12222444Y-13646960D02*
X12231968Y-13637436D01*
X12231968Y-13637436D02*
X12241491Y-13618388D01*
X12241491Y-13618388D02*
X12241491Y-13570769D01*
X12241491Y-13570769D02*
X12231968Y-13551722D01*
X12231968Y-13551722D02*
X12222444Y-13542198D01*
X12222444Y-13542198D02*
X12203396Y-13532674D01*
X12203396Y-13532674D02*
X12165301Y-13532674D01*
X12165301Y-13532674D02*
X12146253Y-13542198D01*
X12146253Y-13542198D02*
X12136729Y-13551722D01*
X12136729Y-13551722D02*
X12127206Y-13570769D01*
X12479587Y-13656484D02*
X12479587Y-13456484D01*
X12565301Y-13656484D02*
X12565301Y-13551722D01*
X12565301Y-13551722D02*
X12555777Y-13532674D01*
X12555777Y-13532674D02*
X12536730Y-13523150D01*
X12536730Y-13523150D02*
X12508158Y-13523150D01*
X12508158Y-13523150D02*
X12489110Y-13532674D01*
X12489110Y-13532674D02*
X12479587Y-13542198D01*
X12689110Y-13656484D02*
X12670063Y-13646960D01*
X12670063Y-13646960D02*
X12660539Y-13637436D01*
X12660539Y-13637436D02*
X12651015Y-13618388D01*
X12651015Y-13618388D02*
X12651015Y-13561246D01*
X12651015Y-13561246D02*
X12660539Y-13542198D01*
X12660539Y-13542198D02*
X12670063Y-13532674D01*
X12670063Y-13532674D02*
X12689110Y-13523150D01*
X12689110Y-13523150D02*
X12717682Y-13523150D01*
X12717682Y-13523150D02*
X12736730Y-13532674D01*
X12736730Y-13532674D02*
X12746253Y-13542198D01*
X12746253Y-13542198D02*
X12755777Y-13561246D01*
X12755777Y-13561246D02*
X12755777Y-13618388D01*
X12755777Y-13618388D02*
X12746253Y-13637436D01*
X12746253Y-13637436D02*
X12736730Y-13646960D01*
X12736730Y-13646960D02*
X12717682Y-13656484D01*
X12717682Y-13656484D02*
X12689110Y-13656484D01*
X12870063Y-13656484D02*
X12851015Y-13646960D01*
X12851015Y-13646960D02*
X12841491Y-13627912D01*
X12841491Y-13627912D02*
X12841491Y-13456484D01*
X13022444Y-13646960D02*
X13003396Y-13656484D01*
X13003396Y-13656484D02*
X12965301Y-13656484D01*
X12965301Y-13656484D02*
X12946253Y-13646960D01*
X12946253Y-13646960D02*
X12936730Y-13627912D01*
X12936730Y-13627912D02*
X12936730Y-13551722D01*
X12936730Y-13551722D02*
X12946253Y-13532674D01*
X12946253Y-13532674D02*
X12965301Y-13523150D01*
X12965301Y-13523150D02*
X13003396Y-13523150D01*
X13003396Y-13523150D02*
X13022444Y-13532674D01*
X13022444Y-13532674D02*
X13031968Y-13551722D01*
X13031968Y-13551722D02*
X13031968Y-13570769D01*
X13031968Y-13570769D02*
X12936730Y-13589817D01*
X13108158Y-13646960D02*
X13127206Y-13656484D01*
X13127206Y-13656484D02*
X13165301Y-13656484D01*
X13165301Y-13656484D02*
X13184349Y-13646960D01*
X13184349Y-13646960D02*
X13193872Y-13627912D01*
X13193872Y-13627912D02*
X13193872Y-13618388D01*
X13193872Y-13618388D02*
X13184349Y-13599341D01*
X13184349Y-13599341D02*
X13165301Y-13589817D01*
X13165301Y-13589817D02*
X13136730Y-13589817D01*
X13136730Y-13589817D02*
X13117682Y-13580293D01*
X13117682Y-13580293D02*
X13108158Y-13561246D01*
X13108158Y-13561246D02*
X13108158Y-13551722D01*
X13108158Y-13551722D02*
X13117682Y-13532674D01*
X13117682Y-13532674D02*
X13136730Y-13523150D01*
X13136730Y-13523150D02*
X13165301Y-13523150D01*
X13165301Y-13523150D02*
X13184349Y-13532674D01*
X13260539Y-13732674D02*
X13270063Y-13723150D01*
X13270063Y-13723150D02*
X13289111Y-13694579D01*
X13289111Y-13694579D02*
X13298634Y-13675531D01*
X13298634Y-13675531D02*
X13308158Y-13646960D01*
X13308158Y-13646960D02*
X13317682Y-13599341D01*
X13317682Y-13599341D02*
X13317682Y-13561246D01*
X13317682Y-13561246D02*
X13308158Y-13513627D01*
X13308158Y-13513627D02*
X13298634Y-13485055D01*
X13298634Y-13485055D02*
X13289111Y-13466008D01*
X13289111Y-13466008D02*
X13270063Y-13437436D01*
X13270063Y-13437436D02*
X13260539Y-13427912D01*
X8095000Y-13729000D02*
X8295000Y-13929000D01*
X8295000Y-13729000D02*
X8095000Y-13929000D01*
X8195000Y-13729000D02*
X8195000Y-13929000D01*
X8095000Y-13829000D02*
X8295000Y-13829000D01*
X8536729Y-13720484D02*
X8660539Y-13720484D01*
X8660539Y-13720484D02*
X8593872Y-13796674D01*
X8593872Y-13796674D02*
X8622444Y-13796674D01*
X8622444Y-13796674D02*
X8641491Y-13806198D01*
X8641491Y-13806198D02*
X8651015Y-13815722D01*
X8651015Y-13815722D02*
X8660539Y-13834769D01*
X8660539Y-13834769D02*
X8660539Y-13882388D01*
X8660539Y-13882388D02*
X8651015Y-13901436D01*
X8651015Y-13901436D02*
X8641491Y-13910960D01*
X8641491Y-13910960D02*
X8622444Y-13920484D01*
X8622444Y-13920484D02*
X8565301Y-13920484D01*
X8565301Y-13920484D02*
X8546253Y-13910960D01*
X8546253Y-13910960D02*
X8536729Y-13901436D01*
X8746253Y-13901436D02*
X8755777Y-13910960D01*
X8755777Y-13910960D02*
X8746253Y-13920484D01*
X8746253Y-13920484D02*
X8736729Y-13910960D01*
X8736729Y-13910960D02*
X8746253Y-13901436D01*
X8746253Y-13901436D02*
X8746253Y-13920484D01*
X8831967Y-13739531D02*
X8841491Y-13730008D01*
X8841491Y-13730008D02*
X8860539Y-13720484D01*
X8860539Y-13720484D02*
X8908158Y-13720484D01*
X8908158Y-13720484D02*
X8927205Y-13730008D01*
X8927205Y-13730008D02*
X8936729Y-13739531D01*
X8936729Y-13739531D02*
X8946253Y-13758579D01*
X8946253Y-13758579D02*
X8946253Y-13777627D01*
X8946253Y-13777627D02*
X8936729Y-13806198D01*
X8936729Y-13806198D02*
X8822444Y-13920484D01*
X8822444Y-13920484D02*
X8946253Y-13920484D01*
X9070063Y-13720484D02*
X9089110Y-13720484D01*
X9089110Y-13720484D02*
X9108158Y-13730008D01*
X9108158Y-13730008D02*
X9117682Y-13739531D01*
X9117682Y-13739531D02*
X9127205Y-13758579D01*
X9127205Y-13758579D02*
X9136729Y-13796674D01*
X9136729Y-13796674D02*
X9136729Y-13844293D01*
X9136729Y-13844293D02*
X9127205Y-13882388D01*
X9127205Y-13882388D02*
X9117682Y-13901436D01*
X9117682Y-13901436D02*
X9108158Y-13910960D01*
X9108158Y-13910960D02*
X9089110Y-13920484D01*
X9089110Y-13920484D02*
X9070063Y-13920484D01*
X9070063Y-13920484D02*
X9051015Y-13910960D01*
X9051015Y-13910960D02*
X9041491Y-13901436D01*
X9041491Y-13901436D02*
X9031967Y-13882388D01*
X9031967Y-13882388D02*
X9022444Y-13844293D01*
X9022444Y-13844293D02*
X9022444Y-13796674D01*
X9022444Y-13796674D02*
X9031967Y-13758579D01*
X9031967Y-13758579D02*
X9041491Y-13739531D01*
X9041491Y-13739531D02*
X9051015Y-13730008D01*
X9051015Y-13730008D02*
X9070063Y-13720484D01*
X9260539Y-13720484D02*
X9279586Y-13720484D01*
X9279586Y-13720484D02*
X9298634Y-13730008D01*
X9298634Y-13730008D02*
X9308158Y-13739531D01*
X9308158Y-13739531D02*
X9317682Y-13758579D01*
X9317682Y-13758579D02*
X9327205Y-13796674D01*
X9327205Y-13796674D02*
X9327205Y-13844293D01*
X9327205Y-13844293D02*
X9317682Y-13882388D01*
X9317682Y-13882388D02*
X9308158Y-13901436D01*
X9308158Y-13901436D02*
X9298634Y-13910960D01*
X9298634Y-13910960D02*
X9279586Y-13920484D01*
X9279586Y-13920484D02*
X9260539Y-13920484D01*
X9260539Y-13920484D02*
X9241491Y-13910960D01*
X9241491Y-13910960D02*
X9231967Y-13901436D01*
X9231967Y-13901436D02*
X9222444Y-13882388D01*
X9222444Y-13882388D02*
X9212920Y-13844293D01*
X9212920Y-13844293D02*
X9212920Y-13796674D01*
X9212920Y-13796674D02*
X9222444Y-13758579D01*
X9222444Y-13758579D02*
X9231967Y-13739531D01*
X9231967Y-13739531D02*
X9241491Y-13730008D01*
X9241491Y-13730008D02*
X9260539Y-13720484D01*
X9412920Y-13920484D02*
X9412920Y-13787150D01*
X9412920Y-13806198D02*
X9422444Y-13796674D01*
X9422444Y-13796674D02*
X9441491Y-13787150D01*
X9441491Y-13787150D02*
X9470063Y-13787150D01*
X9470063Y-13787150D02*
X9489110Y-13796674D01*
X9489110Y-13796674D02*
X9498634Y-13815722D01*
X9498634Y-13815722D02*
X9498634Y-13920484D01*
X9498634Y-13815722D02*
X9508158Y-13796674D01*
X9508158Y-13796674D02*
X9527205Y-13787150D01*
X9527205Y-13787150D02*
X9555777Y-13787150D01*
X9555777Y-13787150D02*
X9574825Y-13796674D01*
X9574825Y-13796674D02*
X9584348Y-13815722D01*
X9584348Y-13815722D02*
X9584348Y-13920484D01*
X9679586Y-13920484D02*
X9679586Y-13787150D01*
X9679586Y-13806198D02*
X9689110Y-13796674D01*
X9689110Y-13796674D02*
X9708158Y-13787150D01*
X9708158Y-13787150D02*
X9736729Y-13787150D01*
X9736729Y-13787150D02*
X9755777Y-13796674D01*
X9755777Y-13796674D02*
X9765301Y-13815722D01*
X9765301Y-13815722D02*
X9765301Y-13920484D01*
X9765301Y-13815722D02*
X9774825Y-13796674D01*
X9774825Y-13796674D02*
X9793872Y-13787150D01*
X9793872Y-13787150D02*
X9822444Y-13787150D01*
X9822444Y-13787150D02*
X9841491Y-13796674D01*
X9841491Y-13796674D02*
X9851015Y-13815722D01*
X9851015Y-13815722D02*
X9851015Y-13920484D01*
X10241491Y-13710960D02*
X10070063Y-13968103D01*
X10498634Y-13720484D02*
X10517682Y-13720484D01*
X10517682Y-13720484D02*
X10536729Y-13730008D01*
X10536729Y-13730008D02*
X10546253Y-13739531D01*
X10546253Y-13739531D02*
X10555777Y-13758579D01*
X10555777Y-13758579D02*
X10565301Y-13796674D01*
X10565301Y-13796674D02*
X10565301Y-13844293D01*
X10565301Y-13844293D02*
X10555777Y-13882388D01*
X10555777Y-13882388D02*
X10546253Y-13901436D01*
X10546253Y-13901436D02*
X10536729Y-13910960D01*
X10536729Y-13910960D02*
X10517682Y-13920484D01*
X10517682Y-13920484D02*
X10498634Y-13920484D01*
X10498634Y-13920484D02*
X10479587Y-13910960D01*
X10479587Y-13910960D02*
X10470063Y-13901436D01*
X10470063Y-13901436D02*
X10460539Y-13882388D01*
X10460539Y-13882388D02*
X10451015Y-13844293D01*
X10451015Y-13844293D02*
X10451015Y-13796674D01*
X10451015Y-13796674D02*
X10460539Y-13758579D01*
X10460539Y-13758579D02*
X10470063Y-13739531D01*
X10470063Y-13739531D02*
X10479587Y-13730008D01*
X10479587Y-13730008D02*
X10498634Y-13720484D01*
X10651015Y-13901436D02*
X10660539Y-13910960D01*
X10660539Y-13910960D02*
X10651015Y-13920484D01*
X10651015Y-13920484D02*
X10641491Y-13910960D01*
X10641491Y-13910960D02*
X10651015Y-13901436D01*
X10651015Y-13901436D02*
X10651015Y-13920484D01*
X10851015Y-13920484D02*
X10736729Y-13920484D01*
X10793872Y-13920484D02*
X10793872Y-13720484D01*
X10793872Y-13720484D02*
X10774825Y-13749055D01*
X10774825Y-13749055D02*
X10755777Y-13768103D01*
X10755777Y-13768103D02*
X10736729Y-13777627D01*
X10927206Y-13739531D02*
X10936729Y-13730008D01*
X10936729Y-13730008D02*
X10955777Y-13720484D01*
X10955777Y-13720484D02*
X11003396Y-13720484D01*
X11003396Y-13720484D02*
X11022444Y-13730008D01*
X11022444Y-13730008D02*
X11031968Y-13739531D01*
X11031968Y-13739531D02*
X11041491Y-13758579D01*
X11041491Y-13758579D02*
X11041491Y-13777627D01*
X11041491Y-13777627D02*
X11031968Y-13806198D01*
X11031968Y-13806198D02*
X10917682Y-13920484D01*
X10917682Y-13920484D02*
X11041491Y-13920484D01*
X11212920Y-13720484D02*
X11174825Y-13720484D01*
X11174825Y-13720484D02*
X11155777Y-13730008D01*
X11155777Y-13730008D02*
X11146253Y-13739531D01*
X11146253Y-13739531D02*
X11127206Y-13768103D01*
X11127206Y-13768103D02*
X11117682Y-13806198D01*
X11117682Y-13806198D02*
X11117682Y-13882388D01*
X11117682Y-13882388D02*
X11127206Y-13901436D01*
X11127206Y-13901436D02*
X11136729Y-13910960D01*
X11136729Y-13910960D02*
X11155777Y-13920484D01*
X11155777Y-13920484D02*
X11193872Y-13920484D01*
X11193872Y-13920484D02*
X11212920Y-13910960D01*
X11212920Y-13910960D02*
X11222444Y-13901436D01*
X11222444Y-13901436D02*
X11231967Y-13882388D01*
X11231967Y-13882388D02*
X11231967Y-13834769D01*
X11231967Y-13834769D02*
X11222444Y-13815722D01*
X11222444Y-13815722D02*
X11212920Y-13806198D01*
X11212920Y-13806198D02*
X11193872Y-13796674D01*
X11193872Y-13796674D02*
X11155777Y-13796674D01*
X11155777Y-13796674D02*
X11136729Y-13806198D01*
X11136729Y-13806198D02*
X11127206Y-13815722D01*
X11127206Y-13815722D02*
X11117682Y-13834769D01*
X11355777Y-13720484D02*
X11374825Y-13720484D01*
X11374825Y-13720484D02*
X11393872Y-13730008D01*
X11393872Y-13730008D02*
X11403396Y-13739531D01*
X11403396Y-13739531D02*
X11412920Y-13758579D01*
X11412920Y-13758579D02*
X11422444Y-13796674D01*
X11422444Y-13796674D02*
X11422444Y-13844293D01*
X11422444Y-13844293D02*
X11412920Y-13882388D01*
X11412920Y-13882388D02*
X11403396Y-13901436D01*
X11403396Y-13901436D02*
X11393872Y-13910960D01*
X11393872Y-13910960D02*
X11374825Y-13920484D01*
X11374825Y-13920484D02*
X11355777Y-13920484D01*
X11355777Y-13920484D02*
X11336729Y-13910960D01*
X11336729Y-13910960D02*
X11327206Y-13901436D01*
X11327206Y-13901436D02*
X11317682Y-13882388D01*
X11317682Y-13882388D02*
X11308158Y-13844293D01*
X11308158Y-13844293D02*
X11308158Y-13796674D01*
X11308158Y-13796674D02*
X11317682Y-13758579D01*
X11317682Y-13758579D02*
X11327206Y-13739531D01*
X11327206Y-13739531D02*
X11336729Y-13730008D01*
X11336729Y-13730008D02*
X11355777Y-13720484D01*
X11498634Y-13720484D02*
X11498634Y-13758579D01*
X11574825Y-13720484D02*
X11574825Y-13758579D01*
X11870063Y-13996674D02*
X11860539Y-13987150D01*
X11860539Y-13987150D02*
X11841491Y-13958579D01*
X11841491Y-13958579D02*
X11831968Y-13939531D01*
X11831968Y-13939531D02*
X11822444Y-13910960D01*
X11822444Y-13910960D02*
X11812920Y-13863341D01*
X11812920Y-13863341D02*
X11812920Y-13825246D01*
X11812920Y-13825246D02*
X11822444Y-13777627D01*
X11822444Y-13777627D02*
X11831968Y-13749055D01*
X11831968Y-13749055D02*
X11841491Y-13730008D01*
X11841491Y-13730008D02*
X11860539Y-13701436D01*
X11860539Y-13701436D02*
X11870063Y-13691912D01*
X12031968Y-13787150D02*
X12031968Y-13920484D01*
X11984348Y-13710960D02*
X11936729Y-13853817D01*
X11936729Y-13853817D02*
X12060539Y-13853817D01*
X12289110Y-13920484D02*
X12289110Y-13720484D01*
X12374825Y-13920484D02*
X12374825Y-13815722D01*
X12374825Y-13815722D02*
X12365301Y-13796674D01*
X12365301Y-13796674D02*
X12346253Y-13787150D01*
X12346253Y-13787150D02*
X12317682Y-13787150D01*
X12317682Y-13787150D02*
X12298634Y-13796674D01*
X12298634Y-13796674D02*
X12289110Y-13806198D01*
X12498634Y-13920484D02*
X12479587Y-13910960D01*
X12479587Y-13910960D02*
X12470063Y-13901436D01*
X12470063Y-13901436D02*
X12460539Y-13882388D01*
X12460539Y-13882388D02*
X12460539Y-13825246D01*
X12460539Y-13825246D02*
X12470063Y-13806198D01*
X12470063Y-13806198D02*
X12479587Y-13796674D01*
X12479587Y-13796674D02*
X12498634Y-13787150D01*
X12498634Y-13787150D02*
X12527206Y-13787150D01*
X12527206Y-13787150D02*
X12546253Y-13796674D01*
X12546253Y-13796674D02*
X12555777Y-13806198D01*
X12555777Y-13806198D02*
X12565301Y-13825246D01*
X12565301Y-13825246D02*
X12565301Y-13882388D01*
X12565301Y-13882388D02*
X12555777Y-13901436D01*
X12555777Y-13901436D02*
X12546253Y-13910960D01*
X12546253Y-13910960D02*
X12527206Y-13920484D01*
X12527206Y-13920484D02*
X12498634Y-13920484D01*
X12679587Y-13920484D02*
X12660539Y-13910960D01*
X12660539Y-13910960D02*
X12651015Y-13891912D01*
X12651015Y-13891912D02*
X12651015Y-13720484D01*
X12831968Y-13910960D02*
X12812920Y-13920484D01*
X12812920Y-13920484D02*
X12774825Y-13920484D01*
X12774825Y-13920484D02*
X12755777Y-13910960D01*
X12755777Y-13910960D02*
X12746253Y-13891912D01*
X12746253Y-13891912D02*
X12746253Y-13815722D01*
X12746253Y-13815722D02*
X12755777Y-13796674D01*
X12755777Y-13796674D02*
X12774825Y-13787150D01*
X12774825Y-13787150D02*
X12812920Y-13787150D01*
X12812920Y-13787150D02*
X12831968Y-13796674D01*
X12831968Y-13796674D02*
X12841491Y-13815722D01*
X12841491Y-13815722D02*
X12841491Y-13834769D01*
X12841491Y-13834769D02*
X12746253Y-13853817D01*
X12917682Y-13910960D02*
X12936730Y-13920484D01*
X12936730Y-13920484D02*
X12974825Y-13920484D01*
X12974825Y-13920484D02*
X12993872Y-13910960D01*
X12993872Y-13910960D02*
X13003396Y-13891912D01*
X13003396Y-13891912D02*
X13003396Y-13882388D01*
X13003396Y-13882388D02*
X12993872Y-13863341D01*
X12993872Y-13863341D02*
X12974825Y-13853817D01*
X12974825Y-13853817D02*
X12946253Y-13853817D01*
X12946253Y-13853817D02*
X12927206Y-13844293D01*
X12927206Y-13844293D02*
X12917682Y-13825246D01*
X12917682Y-13825246D02*
X12917682Y-13815722D01*
X12917682Y-13815722D02*
X12927206Y-13796674D01*
X12927206Y-13796674D02*
X12946253Y-13787150D01*
X12946253Y-13787150D02*
X12974825Y-13787150D01*
X12974825Y-13787150D02*
X12993872Y-13796674D01*
X13070063Y-13996674D02*
X13079587Y-13987150D01*
X13079587Y-13987150D02*
X13098634Y-13958579D01*
X13098634Y-13958579D02*
X13108158Y-13939531D01*
X13108158Y-13939531D02*
X13117682Y-13910960D01*
X13117682Y-13910960D02*
X13127206Y-13863341D01*
X13127206Y-13863341D02*
X13127206Y-13825246D01*
X13127206Y-13825246D02*
X13117682Y-13777627D01*
X13117682Y-13777627D02*
X13108158Y-13749055D01*
X13108158Y-13749055D02*
X13098634Y-13730008D01*
X13098634Y-13730008D02*
X13079587Y-13701436D01*
X13079587Y-13701436D02*
X13070063Y-13691912D01*
M02*
