G04 #@! TF.GenerationSoftware,KiCad,Pcbnew,7.0.9*
G04 #@! TF.CreationDate,2023-11-29T22:57:35+01:00*
G04 #@! TF.ProjectId,vfo-do,76666f2d-646f-42e6-9b69-6361645f7063,rev?*
G04 #@! TF.SameCoordinates,Original*
G04 #@! TF.FileFunction,Soldermask,Bot*
G04 #@! TF.FilePolarity,Negative*
%FSLAX46Y46*%
G04 Gerber Fmt 4.6, Leading zero omitted, Abs format (unit mm)*
G04 Created by KiCad (PCBNEW 7.0.9) date 2023-11-29 22:57:35*
%MOMM*%
%LPD*%
G01*
G04 APERTURE LIST*
G04 Aperture macros list*
%AMRoundRect*
0 Rectangle with rounded corners*
0 $1 Rounding radius*
0 $2 $3 $4 $5 $6 $7 $8 $9 X,Y pos of 4 corners*
0 Add a 4 corners polygon primitive as box body*
4,1,4,$2,$3,$4,$5,$6,$7,$8,$9,$2,$3,0*
0 Add four circle primitives for the rounded corners*
1,1,$1+$1,$2,$3*
1,1,$1+$1,$4,$5*
1,1,$1+$1,$6,$7*
1,1,$1+$1,$8,$9*
0 Add four rect primitives between the rounded corners*
20,1,$1+$1,$2,$3,$4,$5,0*
20,1,$1+$1,$4,$5,$6,$7,0*
20,1,$1+$1,$6,$7,$8,$9,0*
20,1,$1+$1,$8,$9,$2,$3,0*%
G04 Aperture macros list end*
%ADD10R,2.000000X1.905000*%
%ADD11O,2.000000X1.905000*%
%ADD12RoundRect,0.250000X-0.620000X-0.845000X0.620000X-0.845000X0.620000X0.845000X-0.620000X0.845000X0*%
%ADD13O,1.740000X2.190000*%
%ADD14RoundRect,0.250000X0.845000X-0.620000X0.845000X0.620000X-0.845000X0.620000X-0.845000X-0.620000X0*%
%ADD15O,2.190000X1.740000*%
%ADD16C,1.600000*%
%ADD17R,2.200000X2.200000*%
%ADD18O,2.200000X2.200000*%
%ADD19C,0.800000*%
%ADD20C,6.400000*%
%ADD21RoundRect,0.250000X0.620000X0.845000X-0.620000X0.845000X-0.620000X-0.845000X0.620000X-0.845000X0*%
%ADD22C,1.727200*%
%ADD23R,1.727200X1.727200*%
%ADD24RoundRect,0.250000X-0.845000X0.620000X-0.845000X-0.620000X0.845000X-0.620000X0.845000X0.620000X0*%
G04 APERTURE END LIST*
D10*
X109300000Y-97020000D03*
D11*
X109300000Y-99560000D03*
X109300000Y-102100000D03*
D12*
X119850000Y-102100000D03*
D13*
X122390000Y-102100000D03*
X124930000Y-102100000D03*
X127470000Y-102100000D03*
X130010000Y-102100000D03*
D14*
X155640000Y-85250000D03*
D15*
X155640000Y-82710000D03*
D10*
X137720000Y-96960000D03*
D11*
X137720000Y-99500000D03*
X137720000Y-102040000D03*
D16*
X148250000Y-73600000D03*
X153250000Y-73600000D03*
D17*
X148110000Y-78630000D03*
D18*
X155730000Y-78630000D03*
D19*
X158500000Y-60600000D03*
X159202944Y-58902944D03*
X159202944Y-62297056D03*
X160900000Y-58200000D03*
D20*
X160900000Y-60600000D03*
D19*
X160900000Y-63000000D03*
X162597056Y-58902944D03*
X162597056Y-62297056D03*
X163300000Y-60600000D03*
D12*
X91920000Y-101380000D03*
D13*
X94460000Y-101380000D03*
X97000000Y-101380000D03*
X99540000Y-101380000D03*
D21*
X134610000Y-66530000D03*
D13*
X132070000Y-66530000D03*
X129530000Y-66530000D03*
X126990000Y-66530000D03*
D10*
X144540000Y-62940000D03*
D11*
X144540000Y-65480000D03*
X144540000Y-68020000D03*
D16*
X130100000Y-92100000D03*
X135100000Y-92100000D03*
X137750000Y-107450000D03*
X137750000Y-112450000D03*
X109250000Y-107550000D03*
X104250000Y-107550000D03*
D19*
X158500000Y-111825000D03*
X159202944Y-110127944D03*
X159202944Y-113522056D03*
X160900000Y-109425000D03*
D20*
X160900000Y-111825000D03*
D19*
X160900000Y-114225000D03*
X162597056Y-110127944D03*
X162597056Y-113522056D03*
X163300000Y-111825000D03*
D10*
X153555000Y-62990000D03*
D11*
X153555000Y-65530000D03*
X153555000Y-68070000D03*
D16*
X138760000Y-64180000D03*
X138760000Y-69180000D03*
D12*
X122390000Y-111570000D03*
D13*
X124930000Y-111570000D03*
X127470000Y-111570000D03*
X130010000Y-111570000D03*
D19*
X85050000Y-112100000D03*
X85752944Y-110402944D03*
X85752944Y-113797056D03*
X87450000Y-109700000D03*
D20*
X87450000Y-112100000D03*
D19*
X87450000Y-114500000D03*
X89147056Y-110402944D03*
X89147056Y-113797056D03*
X89850000Y-112100000D03*
D22*
X104659500Y-88850000D03*
X130059500Y-88850000D03*
X109739500Y-88850000D03*
X112279500Y-88850000D03*
X114819500Y-88850000D03*
X117359500Y-88850000D03*
X119899500Y-88850000D03*
X122439500Y-88850000D03*
X124979500Y-88850000D03*
X127519500Y-88850000D03*
X107199500Y-88850000D03*
X135139500Y-73610000D03*
X137679500Y-73610000D03*
X127519500Y-73610000D03*
X124979500Y-73610000D03*
X122439500Y-73610000D03*
X119899500Y-73610000D03*
X117359500Y-73610000D03*
X114819500Y-73610000D03*
X112279500Y-73610000D03*
X109739500Y-73610000D03*
X107199500Y-73610000D03*
X104659500Y-73610000D03*
X102119500Y-73610000D03*
X102119500Y-88850000D03*
D23*
X130059500Y-73610000D03*
X135139500Y-88850000D03*
D22*
X132599500Y-73610000D03*
X132599500Y-88850000D03*
X137679500Y-88850000D03*
D21*
X122660000Y-66530000D03*
D13*
X120120000Y-66530000D03*
X117580000Y-66530000D03*
X115040000Y-66530000D03*
D16*
X144550000Y-96900000D03*
X144550000Y-101900000D03*
X114850000Y-94450000D03*
X119850000Y-94450000D03*
D19*
X85050000Y-60600000D03*
X85752944Y-58902944D03*
X85752944Y-62297056D03*
X87450000Y-58200000D03*
D20*
X87450000Y-60600000D03*
D19*
X87450000Y-63000000D03*
X89147056Y-58902944D03*
X89147056Y-62297056D03*
X89850000Y-60600000D03*
D24*
X91290000Y-66440000D03*
D15*
X91290000Y-68980000D03*
X91290000Y-71520000D03*
M02*
